Vesper  Libre-Bold.ufo
<glyph name="numbersign" format="1">
  <advance width="1375"/>
  <unicode hex="0023"/>
  <outline>
    <contour>
      <point x="1318" y="923" type="line"/>
      <point x="1153" y="923" type="line"/>
      <point x="1239" y="1139" type="line"/>
      <point x="1045" y="1184" type="line"/>
      <point x="939" y="923" type="line"/>
      <point x="711" y="923" type="line"/>
      <point x="797" y="1139" type="line"/>
      <point x="603" y="1184" type="line"/>
      <point x="497" y="923" type="line"/>
      <point x="270" y="923" type="line"/>
      <point x="234" y="718" type="line"/>
      <point x="294" y="717"/>
      <point x="354" y="716"/>
      <point x="414" y="716" type="curve"/>
      <point x="315" y="473" type="line"/>
      <point x="87" y="473" type="line"/>
      <point x="51" y="268" type="line"/>
      <point x="232" y="267" type="line"/>
      <point x="125" y="4" type="line"/>
      <point x="330" y="-35" type="line"/>
      <point x="451" y="269" type="line"/>
      <point x="526" y="270"/>
      <point x="601" y="271"/>
      <point x="676" y="273" type="curve"/>
      <point x="567" y="4" type="line"/>
      <point x="772" y="-35" type="line"/>
      <point x="897" y="280" type="line"/>
      <point x="968" y="283"/>
      <point x="1037" y="286"/>
      <point x="1107" y="290" type="curve"/>
      <point x="1136" y="473" type="line"/>
      <point x="974" y="473" type="line"/>
      <point x="1076" y="730" type="line"/>
      <point x="1147" y="733"/>
      <point x="1218" y="736"/>
      <point x="1289" y="740" type="curve"/>
    </contour>
    <contour>
      <point x="757" y="473" type="line"/>
      <point x="532" y="473" type="line"/>
      <point x="629" y="717" type="line"/>
      <point x="705" y="718"/>
      <point x="782" y="720"/>
      <point x="858" y="722" type="curve"/>
    </contour>
  </outline>
</glyph>
<glyph name="plus" format="1">
  <advance width="1024"/>
  <unicode hex="002B"/>
  <outline>
    <contour>
      <point x="620" y="139" type="line"/>
      <point x="620" y="447" type="line"/>
      <point x="722" y="451"/>
      <point x="816" y="456"/>
      <point x="889" y="469" type="curve"/>
      <point x="908" y="670" type="line"/>
      <point x="620" y="670" type="line"/>
      <point x="620" y="955" type="line"/>
      <point x="391" y="933" type="line"/>
      <point x="391" y="670" type="line"/>
      <point x="136" y="670" type="line"/>
      <point x="120" y="441" type="line"/>
      <point x="190" y="441"/>
      <point x="288" y="441"/>
      <point x="392" y="442" type="curve"/>
      <point x="393" y="321"/>
      <point x="394" y="207"/>
      <point x="403" y="118" type="curve"/>
    </contour>
  </outline>
</glyph>
<glyph name="zero" format="1">
  <advance width="1380"/>
  <unicode hex="0030"/>
  <outline>
    <contour>
      <point x="1061" y="-35"/>
      <point x="1245" y="140"/>
      <point x="1245" y="625" type="curve" smooth="yes"/>
      <point x="1245" y="1054"/>
      <point x="999" y="1212"/>
      <point x="705" y="1212" type="curve" smooth="yes"/>
      <point x="312" y="1212"/>
      <point x="135" y="1012"/>
      <point x="135" y="587" type="curve" smooth="yes"/>
      <point x="135" y="128"/>
      <point x="365" y="-35"/>
      <point x="677" y="-35" type="curve" smooth="yes"/>
    </contour>
    <contour>
      <point x="510" y="341"/>
      <point x="503" y="516"/>
      <point x="503" y="674" type="curve" smooth="yes"/>
      <point x="503" y="864"/>
      <point x="539" y="1031"/>
      <point x="574" y="1075" type="curve" smooth="yes"/>
      <point x="594" y="1101"/>
      <point x="620" y="1105"/>
      <point x="660" y="1105" type="curve" smooth="yes"/>
      <point x="743" y="1105"/>
      <point x="800" y="1037"/>
      <point x="828" y="958" type="curve" smooth="yes"/>
      <point x="872" y="835"/>
      <point x="878" y="640"/>
      <point x="878" y="517" type="curve" smooth="yes"/>
      <point x="878" y="342"/>
      <point x="848" y="154"/>
      <point x="807" y="103" type="curve" smooth="yes"/>
      <point x="787" y="78"/>
      <point x="760" y="72"/>
      <point x="710" y="72" type="curve" smooth="yes"/>
      <point x="644" y="72"/>
      <point x="580" y="140"/>
      <point x="553" y="218" type="curve" smooth="yes"/>
    </contour>
  </outline>
</glyph>
<glyph name="question" format="1">
  <advance width="1118"/>
  <unicode hex="003F"/>
  <outline>
    <contour>
      <point x="325" y="515" type="line"/>
      <point x="630" y="468" type="line"/>
      <point x="643" y="515"/>
      <point x="673" y="628"/>
      <point x="680" y="662" type="curve"/>
      <point x="918" y="754"/>
      <point x="1029" y="870"/>
      <point x="1029" y="1058" type="curve" smooth="yes"/>
      <point x="1029" y="1357"/>
      <point x="681" y="1418"/>
      <point x="436" y="1418" type="curve" smooth="yes"/>
      <point x="259" y="1418"/>
      <point x="73" y="1336"/>
      <point x="73" y="1265" type="curve" smooth="yes"/>
      <point x="73" y="1205"/>
      <point x="222" y="1063"/>
      <point x="276" y="1063" type="curve" smooth="yes"/>
      <point x="313" y="1063"/>
      <point x="376" y="1114"/>
      <point x="401" y="1144" type="curve"/>
      <point x="443" y="1350" type="line"/>
      <point x="507" y="1346"/>
      <point x="660" y="1227"/>
      <point x="660" y="1034" type="curve" smooth="yes"/>
      <point x="660" y="916"/>
      <point x="575" y="799"/>
      <point x="341" y="681" type="curve" smooth="yes"/>
      <point x="325" y="673"/>
      <point x="321" y="665"/>
      <point x="321" y="640" type="curve" smooth="yes"/>
    </contour>
    <component base="period" xOffset="171"/>
  </outline>
</glyph>
<glyph name="l" format="1">
  <advance width="681"/>
  <unicode hex="006C"/>
  <outline>
    <contour>
      <point x="171" y="1271" type="line"/>
      <point x="171" y="150" type="line"/>
      <point x="39" y="72" type="line"/>
      <point x="26" y="0" type="line"/>
      <point x="633" y="0" type="line"/>
      <point x="647" y="59" type="line"/>
      <point x="515" y="140" type="line"/>
      <point x="515" y="1472" type="line"/>
      <point x="42" y="1412" type="line"/>
      <point x="33" y="1365" type="line"/>
    </contour>
    <contour>
      <point x="324" y="1404" type="move" name="top"/>
    </contour>
    <contour>
      <point x="353" y="0" type="move" name="bottom"/>
    </contour>
    <contour>
      <point x="516" y="1447" type="move" name="topright"/>
    </contour>
  </outline>
</glyph>
<glyph name="m" format="1">
  <advance width="1978"/>
  <unicode hex="006D"/>
  <outline>
    <contour>
      <point x="188" y="767" type="line"/>
      <point x="188" y="150" type="line"/>
      <point x="57" y="71" type="line"/>
      <point x="43" y="0" type="line"/>
      <point x="644" y="0" type="line"/>
      <point x="658" y="59" type="line"/>
      <point x="532" y="140" type="line"/>
      <point x="532" y="687" type="line" smooth="yes"/>
      <point x="532" y="710"/>
      <point x="530" y="731"/>
      <point x="524" y="749" type="curve"/>
      <point x="599" y="773"/>
      <point x="728" y="777"/>
      <point x="771" y="777" type="curve" smooth="yes"/>
      <point x="781" y="777"/>
      <point x="790" y="774"/>
      <point x="794" y="765" type="curve" smooth="yes"/>
      <point x="809" y="731"/>
      <point x="832" y="670"/>
      <point x="832" y="499" type="curve" smooth="yes"/>
      <point x="832" y="150" type="line"/>
      <point x="752" y="65" type="line"/>
      <point x="742" y="0" type="line"/>
      <point x="1281" y="0" type="line"/>
      <point x="1296" y="60" type="line"/>
      <point x="1176" y="140" type="line"/>
      <point x="1176" y="476" type="line" smooth="yes"/>
      <point x="1176" y="632"/>
      <point x="1173" y="694"/>
      <point x="1160" y="745" type="curve"/>
      <point x="1227" y="773"/>
      <point x="1369" y="777"/>
      <point x="1395" y="777" type="curve" smooth="yes"/>
      <point x="1423" y="777"/>
      <point x="1432" y="772"/>
      <point x="1442" y="751" type="curve" smooth="yes"/>
      <point x="1452" y="730"/>
      <point x="1471" y="677"/>
      <point x="1471" y="507" type="curve" smooth="yes"/>
      <point x="1471" y="150" type="line"/>
      <point x="1393" y="67" type="line"/>
      <point x="1380" y="0" type="line"/>
      <point x="1951" y="0" type="line"/>
      <point x="1965" y="61" type="line"/>
      <point x="1815" y="140" type="line"/>
      <point x="1815" y="609" type="line" smooth="yes"/>
      <point x="1815" y="882"/>
      <point x="1692" y="976"/>
      <point x="1492" y="976" type="curve" smooth="yes"/>
      <point x="1405" y="976"/>
      <point x="1274" y="926"/>
      <point x="1138" y="813" type="curve"/>
      <point x="1084" y="944"/>
      <point x="963" y="976"/>
      <point x="884" y="976" type="curve" smooth="yes"/>
      <point x="752" y="976"/>
      <point x="632" y="912"/>
      <point x="501" y="807" type="curve"/>
      <point x="437" y="960" type="line"/>
      <point x="59" y="909" type="line"/>
      <point x="51" y="860" type="line"/>
    </contour>
    <contour>
      <point x="978" y="950" type="move" name="top"/>
    </contour>
    <contour>
      <point x="1005" y="0" type="move" name="bottom"/>
    </contour>
  </outline>
</glyph>
<glyph name="q" format="1">
  <advance width="1226"/>
  <unicode hex="0071"/>
  <outline>
    <contour>
      <point x="734" y="-325" type="line"/>
      <point x="483" y="-399" type="line"/>
      <point x="465" y="-475" type="line"/>
      <point x="1214" y="-475" type="line"/>
      <point x="1228" y="-414" type="line"/>
      <point x="1078" y="-335" type="line"/>
      <point x="1078" y="743" type="line"/>
      <point x="1160" y="906" type="line"/>
      <point x="1124" y="965" type="line"/>
      <point x="768" y="844" type="line"/>
      <point x="696" y="923"/>
      <point x="595" y="975"/>
      <point x="490" y="975" type="curve" smooth="yes"/>
      <point x="384" y="975"/>
      <point x="299" y="937"/>
      <point x="233" y="880" type="curve" smooth="yes"/>
      <point x="119" y="780"/>
      <point x="60" y="616"/>
      <point x="60" y="451" type="curve" smooth="yes"/>
      <point x="60" y="98"/>
      <point x="251" y="-25"/>
      <point x="447" y="-25" type="curve" smooth="yes"/>
      <point x="596" y="-25"/>
      <point x="697" y="57"/>
      <point x="734" y="98" type="curve"/>
    </contour>
    <contour>
      <point x="734" y="178" type="line"/>
      <point x="710" y="164"/>
      <point x="634" y="152"/>
      <point x="593" y="152" type="curve" smooth="yes"/>
      <point x="553" y="152"/>
      <point x="506" y="183"/>
      <point x="480" y="224" type="curve" smooth="yes"/>
      <point x="420" y="318"/>
      <point x="409" y="420"/>
      <point x="409" y="531" type="curve" smooth="yes"/>
      <point x="409" y="608"/>
      <point x="416" y="682"/>
      <point x="437" y="739" type="curve" smooth="yes"/>
      <point x="456" y="789"/>
      <point x="494" y="796"/>
      <point x="550" y="796" type="curve" smooth="yes"/>
      <point x="615" y="796"/>
      <point x="680" y="791"/>
      <point x="734" y="779" type="curve"/>
    </contour>
  </outline>
</glyph>
<glyph name="z" format="1">
  <advance width="1044"/>
  <unicode hex="007A"/>
  <outline>
    <contour>
      <point x="753" y="138" type="line"/>
      <point x="428" y="95" type="line"/>
      <point x="993" y="829" type="line"/>
      <point x="942" y="950" type="line"/>
      <point x="96" y="950" type="line"/>
      <point x="96" y="624" type="line"/>
      <point x="213" y="635" type="line"/>
      <point x="310" y="826" type="line"/>
      <point x="627" y="856" type="line"/>
      <point x="40" y="122" type="line"/>
      <point x="103" y="0" type="line"/>
      <point x="958" y="0" type="line"/>
      <point x="956" y="328" type="line"/>
      <point x="842" y="319" type="line"/>
    </contour>
    <contour>
      <point x="523" y="950" type="move" name="top"/>
    </contour>
    <contour>
      <point x="540" y="0" type="move" name="bottom"/>
    </contour>
  </outline>
</glyph>
<glyph name="cent" format="1">
  <advance width="1121"/>
  <unicode hex="00A2"/>
  <outline>
    <contour>
      <point x="1007" y="183" type="line"/>
      <point x="986" y="179"/>
      <point x="814" y="153"/>
      <point x="734" y="153" type="curve" smooth="yes"/>
      <point x="702" y="153"/>
      <point x="671" y="156"/>
      <point x="642" y="162" type="curve"/>
      <point x="708" y="514" type="line"/>
      <point x="746" y="702" type="line"/>
      <point x="770" y="668"/>
      <point x="806" y="636"/>
      <point x="831" y="636" type="curve" smooth="yes"/>
      <point x="872" y="636"/>
      <point x="1014" y="766"/>
      <point x="1014" y="825" type="curve" smooth="yes"/>
      <point x="1014" y="849"/>
      <point x="956" y="900"/>
      <point x="896" y="928" type="curve" smooth="yes"/>
      <point x="863" y="944"/>
      <point x="831" y="955"/>
      <point x="798" y="962" type="curve"/>
      <point x="829" y="1116" type="line"/>
      <point x="674" y="1131" type="line"/>
      <point x="644" y="975" type="line"/>
      <point x="330" y="965"/>
      <point x="70" y="760"/>
      <point x="70" y="460" type="curve" smooth="yes"/>
      <point x="70" y="228"/>
      <point x="215" y="54"/>
      <point x="456" y="-3" type="curve"/>
      <point x="423" y="-173" type="line"/>
      <point x="580" y="-170" type="line"/>
      <point x="607" y="-23" type="line"/>
      <point x="641" y="-24" type="line" smooth="yes"/>
      <point x="829" y="-24"/>
      <point x="968" y="71"/>
      <point x="1029" y="152" type="curve"/>
    </contour>
    <contour>
      <point x="425" y="332"/>
      <point x="404" y="415"/>
      <point x="404" y="530" type="curve" smooth="yes"/>
      <point x="404" y="605"/>
      <point x="411" y="720"/>
      <point x="470" y="794" type="curve" smooth="yes"/>
      <point x="512" y="846"/>
      <point x="564" y="866"/>
      <point x="625" y="879" type="curve"/>
      <point x="558" y="532" type="line"/>
      <point x="501" y="236" type="line"/>
      <point x="495" y="242"/>
      <point x="489" y="250"/>
      <point x="483" y="257" type="curve" smooth="yes"/>
    </contour>
  </outline>
</glyph>
<glyph name="currency" format="1">
  <advance width="1383"/>
  <unicode hex="00A4"/>
  <outline>
    <contour>
      <point x="74" y="225" type="line"/>
      <point x="225" y="72" type="line"/>
      <point x="374" y="225" type="line"/>
      <point x="461" y="157"/>
      <point x="573" y="119"/>
      <point x="691" y="119" type="curve" smooth="yes"/>
      <point x="811" y="119"/>
      <point x="918" y="158"/>
      <point x="1005" y="227" type="curve"/>
      <point x="1147" y="69" type="line"/>
      <point x="1310" y="228" type="line"/>
      <point x="1142" y="392" type="line"/>
      <point x="1185" y="472"/>
      <point x="1209" y="562"/>
      <point x="1209" y="662" type="curve" smooth="yes"/>
      <point x="1209" y="761"/>
      <point x="1182" y="847"/>
      <point x="1138" y="921" type="curve"/>
      <point x="1305" y="1075" type="line"/>
      <point x="1152" y="1229" type="line"/>
      <point x="1000" y="1068" type="line"/>
      <point x="918" y="1125"/>
      <point x="818" y="1157"/>
      <point x="715" y="1157" type="curve" smooth="yes"/>
      <point x="606" y="1157"/>
      <point x="508" y="1126"/>
      <point x="427" y="1072" type="curve"/>
      <point x="278" y="1229" type="line"/>
      <point x="118" y="1074" type="line"/>
      <point x="278" y="917" type="line"/>
      <point x="222" y="830"/>
      <point x="190" y="725"/>
      <point x="190" y="612" type="curve" smooth="yes"/>
      <point x="190" y="525"/>
      <point x="210" y="448"/>
      <point x="245" y="381" type="curve"/>
    </contour>
    <contour>
      <point x="590" y="428"/>
      <point x="503" y="543"/>
      <point x="503" y="665" type="curve" smooth="yes"/>
      <point x="503" y="762"/>
      <point x="575" y="852"/>
      <point x="674" y="852" type="curve" smooth="yes"/>
      <point x="803" y="852"/>
      <point x="892" y="744"/>
      <point x="892" y="613" type="curve" smooth="yes"/>
      <point x="892" y="512"/>
      <point x="819" y="428"/>
      <point x="723" y="428" type="curve" smooth="yes"/>
    </contour>
  </outline>
</glyph>
<glyph name="anusvaradeva" format="1">
  <advance width="512"/>
  <unicode hex="0902"/>
  <note>
    dAnusvara
  </note>
  <outline>
    <contour>
      <point x="305" y="1312"/>
      <point x="438" y="1434"/>
      <point x="438" y="1495" type="curve" smooth="yes"/>
      <point x="438" y="1543"/>
      <point x="312" y="1677"/>
      <point x="255" y="1677" type="curve" smooth="yes"/>
      <point x="198" y="1677"/>
      <point x="73" y="1550"/>
      <point x="73" y="1495" type="curve" smooth="yes"/>
      <point x="73" y="1436"/>
      <point x="202" y="1312"/>
      <point x="255" y="1312" type="curve" smooth="yes"/>
    </contour>
    <contour>
      <point x="256" y="1187" type="move" name="_top"/>
    </contour>
  </outline>
</glyph>
<glyph name="iideva" format="1">
  <advance width="1137"/>
  <unicode hex="0908"/>
  <note>
    dIi
  </note>
  <outline>
    <component base="ideva"/>
    <component base="uni0930094D" xOffset="508"/>
    <contour>
      <point x="964" y="1072" type="move" name="top"/>
    </contour>
  </outline>
</glyph>
<glyph name="rvocalicdeva" format="1">
  <advance width="1758"/>
  <unicode hex="090B"/>
  <note>
    dVocalicR
  </note>
  <outline>
    <contour>
      <point x="123" y="250" type="line"/>
      <point x="307" y="-29" type="line"/>
      <point x="732" y="305" type="line"/>
      <point x="732" y="-41" type="line"/>
      <point x="1029" y="-98" type="line"/>
      <point x="1029" y="431" type="line"/>
      <point x="1149" y="429"/>
      <point x="1275" y="454"/>
      <point x="1411" y="523" type="curve"/>
      <point x="1461" y="472"/>
      <point x="1478" y="449"/>
      <point x="1478" y="407" type="curve" smooth="yes"/>
      <point x="1478" y="375"/>
      <point x="1460" y="299"/>
      <point x="1218" y="267" type="curve"/>
      <point x="1348" y="-27" type="line"/>
      <point x="1366" y="-23"/>
      <point x="1374" y="-21"/>
      <point x="1382" y="-18" type="curve"/>
      <point x="1590" y="51"/>
      <point x="1656" y="159"/>
      <point x="1656" y="267" type="curve" smooth="yes"/>
      <point x="1656" y="385"/>
      <point x="1594" y="479"/>
      <point x="1504" y="583" type="curve"/>
      <point x="1547" y="619"/>
      <point x="1590" y="664"/>
      <point x="1611" y="695" type="curve"/>
      <point x="1614" y="699"/>
      <point x="1618" y="709"/>
      <point x="1618" y="717" type="curve" smooth="yes"/>
      <point x="1618" y="725"/>
      <point x="1614" y="736"/>
      <point x="1605" y="747" type="curve" smooth="yes"/>
      <point x="1537" y="836"/>
      <point x="1432" y="902"/>
      <point x="1337" y="902" type="curve" smooth="yes"/>
      <point x="1272" y="902"/>
      <point x="1235" y="871"/>
      <point x="1235" y="812" type="curve" smooth="yes"/>
      <point x="1235" y="764"/>
      <point x="1249" y="724"/>
      <point x="1275" y="687" type="curve"/>
      <point x="1225" y="651"/>
      <point x="1157" y="614"/>
      <point x="1029" y="601" type="curve"/>
      <point x="1029" y="998" type="line"/>
      <point x="1810" y="998" type="line"/>
      <point x="1762" y="1187" type="line"/>
      <point x="-52" y="1187" type="line"/>
      <point x="-1" y="998" type="line"/>
      <point x="732" y="998" type="line"/>
      <point x="732" y="689" type="line"/>
      <point x="564" y="842"/>
      <point x="493" y="900"/>
      <point x="381" y="900" type="curve" smooth="yes"/>
      <point x="267" y="900"/>
      <point x="156" y="865"/>
      <point x="30" y="755" type="curve"/>
      <point x="237" y="500" type="line"/>
      <point x="381" y="634"/>
      <point x="438" y="645"/>
      <point x="497" y="645" type="curve" smooth="yes"/>
      <point x="556" y="645"/>
      <point x="601" y="613"/>
      <point x="710" y="525" type="curve"/>
    </contour>
    <contour>
      <point x="879" y="1187" type="move" name="top"/>
    </contour>
    <contour>
      <point x="881" y="0" type="move" name="bottom"/>
    </contour>
  </outline>
</glyph>
<glyph name="edeva" format="1">
  <advance width="1241"/>
  <unicode hex="090F"/>
  <note>
    dE
  </note>
  <outline>
    <contour>
      <point x="137" y="998" type="line"/>
      <point x="137" y="530" type="line" smooth="yes"/>
      <point x="137" y="415"/>
      <point x="178" y="385"/>
      <point x="341" y="284" type="curve" smooth="yes"/>
      <point x="480" y="199"/>
      <point x="548" y="156"/>
      <point x="675" y="76" type="curve" smooth="yes"/>
      <point x="714" y="51"/>
      <point x="727" y="20"/>
      <point x="727" y="-17" type="curve" smooth="yes"/>
      <point x="727" y="-60"/>
      <point x="696" y="-104"/>
      <point x="623" y="-165" type="curve"/>
      <point x="860" y="-337" type="line"/>
      <point x="957" y="-232"/>
      <point x="1005" y="-139"/>
      <point x="1005" y="-59" type="curve" smooth="yes"/>
      <point x="1005" y="45"/>
      <point x="974" y="100"/>
      <point x="872" y="165" type="curve" smooth="yes"/>
      <point x="709" y="269"/>
      <point x="646" y="305"/>
      <point x="489" y="410" type="curve" smooth="yes"/>
      <point x="455" y="433"/>
      <point x="444" y="455"/>
      <point x="444" y="506" type="curve" smooth="yes"/>
      <point x="444" y="998" type="line"/>
      <point x="817" y="998" type="line"/>
      <point x="817" y="631" type="line" smooth="yes"/>
      <point x="817" y="512"/>
      <point x="779" y="491"/>
      <point x="688" y="439" type="curve"/>
      <point x="948" y="268" type="line"/>
      <point x="1055" y="339"/>
      <point x="1123" y="422"/>
      <point x="1123" y="610" type="curve" smooth="yes"/>
      <point x="1123" y="998" type="line"/>
      <point x="1293" y="998" type="line"/>
      <point x="1248" y="1187" type="line"/>
      <point x="-52" y="1187" type="line"/>
      <point x="-2" y="998" type="line"/>
    </contour>
    <contour>
      <point x="939" y="1187" type="move" name="top"/>
    </contour>
  </outline>
</glyph>
<glyph name="kadeva" format="1">
  <advance width="1669"/>
  <unicode hex="0915"/>
  <note>
    dKa
  </note>
  <outline>
    <contour>
      <point x="1151" y="820"/>
      <point x="1064" y="796"/>
      <point x="997" y="749" type="curve"/>
      <point x="997" y="998" type="line"/>
      <point x="1721" y="998" type="line"/>
      <point x="1674" y="1187" type="line"/>
      <point x="-52" y="1187" type="line"/>
      <point x="-4" y="998" type="line"/>
      <point x="700" y="998" type="line"/>
      <point x="700" y="680" type="line"/>
      <point x="589" y="783"/>
      <point x="484" y="834"/>
      <point x="367" y="834" type="curve" smooth="yes"/>
      <point x="167" y="834"/>
      <point x="44" y="713"/>
      <point x="44" y="520" type="curve" smooth="yes"/>
      <point x="44" y="306"/>
      <point x="288" y="125"/>
      <point x="504" y="125" type="curve" smooth="yes"/>
      <point x="570" y="125"/>
      <point x="643" y="142"/>
      <point x="700" y="173" type="curve"/>
      <point x="700" y="-41" type="line"/>
      <point x="997" y="-99" type="line"/>
      <point x="997" y="406" type="line"/>
      <point x="1081" y="526"/>
      <point x="1236" y="629"/>
      <point x="1349" y="629" type="curve" smooth="yes"/>
      <point x="1369" y="629"/>
      <point x="1391" y="627"/>
      <point x="1400" y="617" type="curve" smooth="yes"/>
      <point x="1407" y="609"/>
      <point x="1408" y="592"/>
      <point x="1408" y="576" type="curve" smooth="yes"/>
      <point x="1408" y="472"/>
      <point x="1281" y="362"/>
      <point x="1113" y="234" type="curve"/>
      <point x="1369" y="48" type="line"/>
      <point x="1497" y="142"/>
      <point x="1613" y="266"/>
      <point x="1613" y="418" type="curve" smooth="yes"/>
      <point x="1613" y="588"/>
      <point x="1432" y="820"/>
      <point x="1233" y="820" type="curve" smooth="yes"/>
    </contour>
    <contour>
      <point x="386" y="300"/>
      <point x="377" y="302"/>
      <point x="371" y="312" type="curve"/>
      <point x="350" y="352"/>
      <point x="337" y="399"/>
      <point x="337" y="469" type="curve" smooth="yes"/>
      <point x="337" y="581"/>
      <point x="419" y="632"/>
      <point x="518" y="632" type="curve" smooth="yes"/>
      <point x="582" y="632"/>
      <point x="644" y="614"/>
      <point x="700" y="588" type="curve"/>
      <point x="700" y="478" type="line"/>
      <point x="610" y="355"/>
      <point x="469" y="300"/>
      <point x="397" y="300" type="curve" smooth="yes"/>
    </contour>
    <contour>
      <point x="224" y="-40" type="move" name="nukta"/>
    </contour>
    <contour>
      <point x="849" y="0" type="move" name="bottom"/>
    </contour>
    <contour>
      <point x="849" y="1187" type="move" name="top"/>
    </contour>
  </outline>
</glyph>
<glyph name="khadeva" format="1">
  <advance width="1734"/>
  <unicode hex="0916"/>
  <note>
    dKha
  </note>
  <outline>
    <contour>
      <point x="1741" y="1187" type="line"/>
      <point x="-52" y="1187" type="line"/>
      <point x="-4" y="998" type="line"/>
      <point x="346" y="998" type="line"/>
      <point x="357" y="939"/>
      <point x="364" y="879"/>
      <point x="364" y="823" type="curve" smooth="yes"/>
      <point x="364" y="754"/>
      <point x="352" y="684"/>
      <point x="329" y="642" type="curve"/>
      <point x="248" y="689" type="line"/>
      <point x="92" y="623" type="line"/>
      <point x="94" y="597"/>
      <point x="98" y="569"/>
      <point x="105" y="538" type="curve" smooth="yes"/>
      <point x="131" y="417"/>
      <point x="192" y="269"/>
      <point x="276" y="149" type="curve" smooth="yes"/>
      <point x="400" y="-29"/>
      <point x="610" y="-127"/>
      <point x="838" y="-127" type="curve" smooth="yes"/>
      <point x="944" y="-127"/>
      <point x="1004" y="-116"/>
      <point x="1098" y="-64" type="curve"/>
      <point x="977" y="163" type="line"/>
      <point x="901" y="135"/>
      <point x="849" y="124"/>
      <point x="767" y="124" type="curve" smooth="yes"/>
      <point x="604" y="124"/>
      <point x="413" y="172"/>
      <point x="313" y="379" type="curve"/>
      <point x="521" y="447"/>
      <point x="642" y="568"/>
      <point x="642" y="775" type="curve" smooth="yes"/>
      <point x="642" y="837"/>
      <point x="622" y="926"/>
      <point x="589" y="998" type="curve"/>
      <point x="1311" y="998" type="line"/>
      <point x="1311" y="702" type="line"/>
      <point x="1223" y="794"/>
      <point x="1103" y="844"/>
      <point x="1012" y="844" type="curve" smooth="yes"/>
      <point x="841" y="844"/>
      <point x="715" y="727"/>
      <point x="715" y="562" type="curve" smooth="yes"/>
      <point x="715" y="338"/>
      <point x="898" y="192"/>
      <point x="1130" y="192" type="curve" smooth="yes"/>
      <point x="1184" y="192"/>
      <point x="1252" y="200"/>
      <point x="1311" y="220" type="curve"/>
      <point x="1311" y="-42" type="line"/>
      <point x="1608" y="-100" type="line"/>
      <point x="1608" y="998" type="line"/>
      <point x="1786" y="998" type="line"/>
    </contour>
    <contour>
      <point x="1070" y="327"/>
      <point x="1063" y="331"/>
      <point x="1059" y="336" type="curve" smooth="yes"/>
      <point x="1031" y="371"/>
      <point x="1010" y="421"/>
      <point x="1010" y="492" type="curve" smooth="yes"/>
      <point x="1010" y="595"/>
      <point x="1080" y="650"/>
      <point x="1162" y="650" type="curve" smooth="yes"/>
      <point x="1213" y="650"/>
      <point x="1279" y="625"/>
      <point x="1311" y="611" type="curve"/>
      <point x="1311" y="455" type="line"/>
      <point x="1250" y="381"/>
      <point x="1165" y="327"/>
      <point x="1083" y="327" type="curve" smooth="yes"/>
    </contour>
    <contour>
      <point x="179" y="-120" type="move" name="nukta"/>
    </contour>
    <contour>
      <point x="1460" y="0" type="move" name="bottom"/>
    </contour>
    <contour>
      <point x="1460" y="1187" type="move" name="top"/>
    </contour>
  </outline>
</glyph>
<glyph name="ddhadeva" format="1">
  <advance width="1290"/>
  <unicode hex="0922"/>
  <note>
    dDdha
  </note>
  <outline>
    <contour>
      <point x="1042" y="696" type="line"/>
      <point x="1051" y="850"/>
      <point x="1037" y="928"/>
      <point x="1017" y="998" type="curve"/>
      <point x="1342" y="998" type="line"/>
      <point x="1296" y="1187" type="line"/>
      <point x="-52" y="1187" type="line"/>
      <point x="-3" y="998" type="line"/>
      <point x="752" y="998" type="line"/>
      <point x="754" y="981"/>
      <point x="753" y="963"/>
      <point x="753" y="942" type="curve" smooth="yes"/>
      <point x="753" y="925"/>
      <point x="749" y="900"/>
      <point x="746" y="880" type="curve"/>
      <point x="558" y="880" type="line" smooth="yes"/>
      <point x="317" y="880"/>
      <point x="79" y="802"/>
      <point x="79" y="524" type="curve" smooth="yes"/>
      <point x="79" y="355"/>
      <point x="177" y="225"/>
      <point x="309" y="129" type="curve" smooth="yes"/>
      <point x="422" y="47"/>
      <point x="572" y="1"/>
      <point x="750" y="1" type="curve" smooth="yes"/>
      <point x="1040" y="1"/>
      <point x="1203" y="142"/>
      <point x="1203" y="313" type="curve" smooth="yes"/>
      <point x="1203" y="449"/>
      <point x="965" y="611"/>
      <point x="792" y="611" type="curve" smooth="yes"/>
      <point x="624" y="611"/>
      <point x="515" y="523"/>
      <point x="515" y="403" type="curve" smooth="yes"/>
      <point x="515" y="319"/>
      <point x="564" y="252"/>
      <point x="632" y="181" type="curve"/>
      <point x="555" y="167"/>
      <point x="453" y="175"/>
      <point x="441" y="188" type="curve"/>
      <point x="416" y="212"/>
      <point x="375" y="316"/>
      <point x="375" y="442" type="curve" smooth="yes"/>
      <point x="375" y="679"/>
      <point x="539" y="696"/>
      <point x="736" y="696" type="curve" smooth="yes"/>
    </contour>
    <contour>
      <point x="728" y="387"/>
      <point x="820" y="453"/>
      <point x="931" y="457" type="curve"/>
      <point x="945" y="458"/>
      <point x="969" y="454"/>
      <point x="975" y="449" type="curve"/>
      <point x="979" y="446"/>
      <point x="989" y="417"/>
      <point x="989" y="392" type="curve" smooth="yes"/>
      <point x="989" y="263"/>
      <point x="850" y="216"/>
      <point x="749" y="203" type="curve"/>
    </contour>
    <contour>
      <point x="101" y="-40" type="move" name="nukta"/>
    </contour>
    <contour>
      <point x="768" y="10" type="move" name="bottom"/>
    </contour>
    <contour>
      <point x="885" y="1187" type="move" name="top"/>
    </contour>
  </outline>
</glyph>
<glyph name="tadeva" format="1">
  <advance width="1221"/>
  <unicode hex="0924"/>
  <note>
    dTa
  </note>
  <outline>
    <contour>
      <point x="1224" y="1187" type="line"/>
      <point x="-52" y="1187" type="line"/>
      <point x="-2" y="998" type="line"/>
      <point x="801" y="998" type="line"/>
      <point x="801" y="823" type="line"/>
      <point x="435" y="823" type="line" smooth="yes"/>
      <point x="164" y="823"/>
      <point x="71" y="681"/>
      <point x="71" y="513" type="curve" smooth="yes"/>
      <point x="71" y="339"/>
      <point x="207" y="140"/>
      <point x="445" y="-101" type="curve"/>
      <point x="578" y="-36" type="line"/>
      <point x="425" y="195"/>
      <point x="398" y="335"/>
      <point x="398" y="438" type="curve" smooth="yes"/>
      <point x="398" y="534"/>
      <point x="455" y="603"/>
      <point x="584" y="603" type="curve" smooth="yes"/>
      <point x="801" y="603" type="line"/>
      <point x="801" y="-40" type="line"/>
      <point x="1098" y="-100" type="line"/>
      <point x="1098" y="998" type="line"/>
      <point x="1273" y="998" type="line"/>
    </contour>
    <contour>
      <point x="80" y="-70" type="move" name="nukta"/>
    </contour>
    <contour>
      <point x="950" y="0" type="move" name="bottom"/>
    </contour>
    <contour>
      <point x="950" y="1187" type="move" name="top"/>
    </contour>
  </outline>
</glyph>
<glyph name="shadeva" format="1">
  <advance width="1517"/>
  <unicode hex="0936"/>
  <note>
    dSha
  </note>
  <outline>
    <contour>
      <point x="893" y="1019"/>
      <point x="702" y="1218"/>
      <point x="448" y="1218" type="curve" smooth="yes"/>
      <point x="290" y="1218"/>
      <point x="124" y="1137"/>
      <point x="124" y="962" type="curve" smooth="yes"/>
      <point x="124" y="800"/>
      <point x="252" y="665"/>
      <point x="537" y="630" type="curve"/>
      <point x="487" y="577"/>
      <point x="415" y="534"/>
      <point x="318" y="502" type="curve"/>
      <point x="275" y="568"/>
      <point x="236" y="604"/>
      <point x="206" y="604" type="curve" smooth="yes"/>
      <point x="123" y="604"/>
      <point x="18" y="447"/>
      <point x="18" y="363" type="curve" smooth="yes"/>
      <point x="18" y="285"/>
      <point x="195" y="253"/>
      <point x="303" y="251" type="curve"/>
      <point x="441" y="90"/>
      <point x="624" y="-69"/>
      <point x="757" y="-149" type="curve"/>
      <point x="879" y="103" type="line"/>
      <point x="649" y="178"/>
      <point x="560" y="211"/>
      <point x="469" y="274" type="curve"/>
      <point x="671" y="330"/>
      <point x="893" y="492"/>
      <point x="893" y="795" type="curve"/>
    </contour>
    <contour>
      <point x="1522" y="1187" type="line"/>
      <point x="930" y="1187" type="line"/>
      <point x="980" y="998" type="line"/>
      <point x="1084" y="998" type="line"/>
      <point x="1084" y="-41" type="line"/>
      <point x="1381" y="-100" type="line"/>
      <point x="1381" y="998" type="line"/>
      <point x="1569" y="998" type="line"/>
    </contour>
    <contour>
      <point x="401" y="1024"/>
      <point x="454" y="1075"/>
      <point x="535" y="1075" type="curve" smooth="yes"/>
      <point x="588" y="1075"/>
      <point x="629" y="977"/>
      <point x="629" y="868" type="curve" smooth="yes"/>
      <point x="629" y="819"/>
      <point x="621" y="773"/>
      <point x="603" y="730" type="curve"/>
      <point x="440" y="781"/>
      <point x="401" y="875"/>
      <point x="401" y="956" type="curve" smooth="yes"/>
    </contour>
    <contour>
      <point x="283" y="-150" type="move" name="nukta"/>
    </contour>
    <contour>
      <point x="1233" y="0" type="move" name="bottom"/>
    </contour>
    <contour>
      <point x="1233" y="1187" type="move" name="top"/>
    </contour>
  </outline>
</glyph>
<glyph name="uni093A" format="1">
  <advance width="600"/>
  <unicode hex="093A"/>
  <outline>
    <contour>
      <point x="458" y="1062" type="line"/>
      <point x="458" y="1368" type="line"/>
      <point x="161" y="1424" type="line"/>
      <point x="161" y="1062" type="line"/>
    </contour>
    <contour>
      <point x="300" y="1187" type="move" name="_top"/>
    </contour>
  </outline>
</glyph>
<glyph name="uni0940" format="1">
  <advance width="592"/>
  <unicode hex="0940"/>
  <note>
    dMatraIi
  </note>
  <outline>
    <contour>
      <point x="145" y="998" type="line"/>
      <point x="145" y="-42" type="line"/>
      <point x="447" y="-98" type="line"/>
      <point x="447" y="998" type="line"/>
      <point x="641" y="998" type="line"/>
      <point x="593" y="1187" type="line"/>
      <point x="420" y="1187" type="line"/>
      <point x="207" y="1578"/>
      <point x="-43" y="1713"/>
      <point x="-210" y="1713" type="curve" smooth="yes"/>
      <point x="-379" y="1713"/>
      <point x="-516" y="1628"/>
      <point x="-516" y="1474" type="curve" smooth="yes"/>
      <point x="-516" y="1370"/>
      <point x="-447" y="1280"/>
      <point x="-370" y="1227" type="curve"/>
      <point x="-208" y="1271" type="line"/>
      <point x="-229" y="1338"/>
      <point x="-236" y="1364"/>
      <point x="-236" y="1410" type="curve" smooth="yes"/>
      <point x="-236" y="1471"/>
      <point x="-203" y="1522"/>
      <point x="-126" y="1522" type="curve" smooth="yes"/>
      <point x="-109" y="1522"/>
      <point x="-90" y="1519"/>
      <point x="-79" y="1513" type="curve"/>
      <point x="-65" y="1506"/>
      <point x="60" y="1425"/>
      <point x="141" y="1187" type="curve"/>
      <point x="-52" y="1187" type="line"/>
      <point x="-1" y="998" type="line"/>
    </contour>
    <contour>
      <point x="-290" y="1187" type="move" name="iimatra"/>
    </contour>
    <contour>
      <point x="329" y="1137" type="move" name="top"/>
    </contour>
  </outline>
</glyph>
<glyph name="uni097B" format="1">
  <advance width="1346"/>
  <unicode hex="097B"/>
  <note>
    dGga
  </note>
  <outline>
    <contour>
      <point x="1352" y="1187" type="line"/>
      <point x="-52" y="1187" type="line"/>
      <point x="-1" y="998" type="line"/>
      <point x="346" y="998" type="line"/>
      <point x="356" y="946"/>
      <point x="360" y="872"/>
      <point x="360" y="793" type="curve" smooth="yes"/>
      <point x="360" y="742"/>
      <point x="358" y="692"/>
      <point x="351" y="651" type="curve"/>
      <point x="337" y="652"/>
      <point x="323" y="652"/>
      <point x="309" y="652" type="curve" smooth="yes"/>
      <point x="243" y="651"/>
      <point x="174" y="643"/>
      <point x="131" y="626" type="curve"/>
      <point x="115" y="619"/>
      <point x="107" y="606"/>
      <point x="107" y="591" type="curve" smooth="yes"/>
      <point x="107" y="500"/>
      <point x="384" y="218"/>
      <point x="514" y="218" type="curve" smooth="yes"/>
      <point x="529" y="218"/>
      <point x="542" y="221"/>
      <point x="555" y="233" type="curve" smooth="yes"/>
      <point x="638" y="315"/>
      <point x="650" y="519"/>
      <point x="650" y="618" type="curve" smooth="yes"/>
      <point x="650" y="704"/>
      <point x="644" y="842"/>
      <point x="619" y="998" type="curve"/>
      <point x="929" y="998" type="line"/>
      <point x="929" y="76" type="line"/>
      <point x="36" y="76" type="line"/>
      <point x="89" y="-93" type="line"/>
      <point x="1224" y="-93" type="line"/>
      <point x="1224" y="998" type="line"/>
      <point x="1398" y="998" type="line"/>
    </contour>
  </outline>
</glyph>
<glyph name="uni097C" format="1">
  <advance width="1578"/>
  <unicode hex="097C"/>
  <note>
    dJja
  </note>
  <outline>
    <contour>
      <point x="1585" y="1187" type="line"/>
      <point x="-52" y="1187" type="line"/>
      <point x="-4" y="998" type="line"/>
      <point x="1130" y="998" type="line"/>
      <point x="1130" y="802" type="line"/>
      <point x="482" y="802" type="line"/>
      <point x="517" y="656" type="line"/>
      <point x="644" y="595"/>
      <point x="703" y="543"/>
      <point x="703" y="442" type="curve" smooth="yes"/>
      <point x="703" y="374"/>
      <point x="655" y="312"/>
      <point x="567" y="312" type="curve" smooth="yes"/>
      <point x="445" y="312"/>
      <point x="327" y="397"/>
      <point x="201" y="738" type="curve"/>
      <point x="62" y="695" type="line"/>
      <point x="181" y="279"/>
      <point x="335" y="51"/>
      <point x="661" y="51" type="curve" smooth="yes"/>
      <point x="851" y="51"/>
      <point x="995" y="163"/>
      <point x="995" y="343" type="curve" smooth="yes"/>
      <point x="995" y="445"/>
      <point x="935" y="543"/>
      <point x="790" y="612" type="curve"/>
      <point x="1130" y="612" type="line"/>
      <point x="1130" y="-4" type="line"/>
      <point x="22" y="-4" type="line"/>
      <point x="77" y="-173" type="line"/>
      <point x="1427" y="-173" type="line"/>
      <point x="1427" y="998" type="line"/>
      <point x="1630" y="998" type="line"/>
    </contour>
  </outline>
</glyph>
<glyph name="perthousand" format="1">
  <advance width="2242"/>
  <unicode hex="2030"/>
  <outline>
    <contour>
      <point x="579" y="684"/>
      <point x="720" y="848"/>
      <point x="720" y="1044" type="curve" smooth="yes"/>
      <point x="720" y="1237"/>
      <point x="573" y="1370"/>
      <point x="400" y="1370" type="curve" smooth="yes"/>
      <point x="201" y="1370"/>
      <point x="62" y="1204"/>
      <point x="62" y="1009" type="curve" smooth="yes"/>
      <point x="62" y="816"/>
      <point x="209" y="684"/>
      <point x="385" y="684" type="curve" smooth="yes"/>
    </contour>
    <contour>
      <point x="313" y="873"/>
      <point x="260" y="960"/>
      <point x="260" y="1051" type="curve" smooth="yes"/>
      <point x="260" y="1118"/>
      <point x="300" y="1185"/>
      <point x="375" y="1185" type="curve" smooth="yes"/>
      <point x="467" y="1185"/>
      <point x="523" y="1104"/>
      <point x="523" y="1010" type="curve" smooth="yes"/>
      <point x="523" y="937"/>
      <point x="477" y="873"/>
      <point x="408" y="873" type="curve" smooth="yes"/>
    </contour>
    <contour>
      <point x="2050" y="-3"/>
      <point x="2187" y="161"/>
      <point x="2187" y="357" type="curve" smooth="yes"/>
      <point x="2187" y="550"/>
      <point x="2044" y="683"/>
      <point x="1877" y="683" type="curve" smooth="yes"/>
      <point x="1684" y="683"/>
      <point x="1549" y="517"/>
      <point x="1549" y="322" type="curve" smooth="yes"/>
      <point x="1549" y="129"/>
      <point x="1692" y="-3"/>
      <point x="1862" y="-3" type="curve" smooth="yes"/>
    </contour>
    <contour>
      <point x="1347" y="-4"/>
      <point x="1488" y="160"/>
      <point x="1488" y="356" type="curve" smooth="yes"/>
      <point x="1488" y="549"/>
      <point x="1341" y="682"/>
      <point x="1168" y="682" type="curve" smooth="yes"/>
      <point x="969" y="682"/>
      <point x="830" y="516"/>
      <point x="830" y="322" type="curve" smooth="yes"/>
      <point x="830" y="128"/>
      <point x="977" y="-4"/>
      <point x="1153" y="-4" type="curve" smooth="yes"/>
    </contour>
    <contour>
      <point x="1796" y="186"/>
      <point x="1747" y="273"/>
      <point x="1747" y="364" type="curve" smooth="yes"/>
      <point x="1747" y="431"/>
      <point x="1783" y="498"/>
      <point x="1852" y="498" type="curve" smooth="yes"/>
      <point x="1938" y="498"/>
      <point x="1990" y="417"/>
      <point x="1990" y="323" type="curve" smooth="yes"/>
      <point x="1990" y="250"/>
      <point x="1948" y="186"/>
      <point x="1885" y="186" type="curve" smooth="yes"/>
    </contour>
    <contour>
      <point x="1081" y="185"/>
      <point x="1028" y="272"/>
      <point x="1028" y="363" type="curve" smooth="yes"/>
      <point x="1028" y="430"/>
      <point x="1068" y="497"/>
      <point x="1142" y="497" type="curve" smooth="yes"/>
      <point x="1235" y="497"/>
      <point x="1291" y="416"/>
      <point x="1291" y="321" type="curve" smooth="yes"/>
      <point x="1291" y="249"/>
      <point x="1245" y="185"/>
      <point x="1176" y="185" type="curve" smooth="yes"/>
    </contour>
    <component base="fraction" xOffset="568"/>
  </outline>
</glyph>
<glyph name="notequal" format="1">
  <advance width="1026"/>
  <unicode hex="2260"/>
  <outline>
    <contour>
      <point x="234" y="110" type="line"/>
      <point x="438" y="70" type="line"/>
      <point x="762" y="1019" type="line"/>
      <point x="560" y="1058" type="line"/>
    </contour>
    <component base="equal"/>
  </outline>
</glyph>
<glyph name="breve.case" format="1">
  <advance width="1024"/>
  <outline>
    <contour>
      <point x="695" y="1470"/>
      <point x="842" y="1574"/>
      <point x="842" y="1738" type="curve" smooth="yes"/>
      <point x="842" y="1777"/>
      <point x="831" y="1802"/>
      <point x="818" y="1810" type="curve"/>
      <point x="681" y="1810" type="line"/>
      <point x="650" y="1686"/>
      <point x="605" y="1640"/>
      <point x="518" y="1640" type="curve" smooth="yes"/>
      <point x="426" y="1640"/>
      <point x="377" y="1683"/>
      <point x="345" y="1810" type="curve"/>
      <point x="208" y="1810" type="line"/>
      <point x="190" y="1802"/>
      <point x="182" y="1768"/>
      <point x="182" y="1729" type="curve" smooth="yes"/>
      <point x="182" y="1572"/>
      <point x="330" y="1470"/>
      <point x="518" y="1470" type="curve" smooth="yes"/>
    </contour>
    <contour>
      <point x="512" y="1384" type="move" name="_top"/>
    </contour>
  </outline>
</glyph>
<glyph name="caron.case" format="1">
  <advance width="1024"/>
  <outline>
    <contour>
      <point x="440" y="1515" type="line"/>
      <point x="585" y="1515" type="line"/>
      <point x="869" y="1748" type="line"/>
      <point x="775" y="1827" type="line"/>
      <point x="512" y="1702" type="line"/>
      <point x="250" y="1827" type="line"/>
      <point x="156" y="1748" type="line"/>
    </contour>
    <contour>
      <point x="512" y="1384" type="move" name="_top"/>
    </contour>
  </outline>
</glyph>
<glyph name="circumflex.case" format="1">
  <advance width="1024"/>
  <outline>
    <contour>
      <point x="253" y="1475" type="line"/>
      <point x="514" y="1598" type="line"/>
      <point x="775" y="1475" type="line"/>
      <point x="874" y="1554" type="line"/>
      <point x="578" y="1805" type="line"/>
      <point x="449" y="1805" type="line"/>
      <point x="154" y="1554" type="line"/>
    </contour>
    <contour>
      <point x="512" y="1384" type="move" name="_top"/>
    </contour>
  </outline>
</glyph>
<glyph name="dadeva_uuvowelsigndeva" format="1">
  <advance width="1417"/>
  <note>
    dDMatraUu
  </note>
  <outline>
    <contour>
      <point x="1301" y="-179"/>
      <point x="1211" y="-100"/>
      <point x="1126" y="-52" type="curve" smooth="yes"/>
      <point x="1055" y="-13"/>
      <point x="1004" y="30"/>
      <point x="960" y="93" type="curve"/>
      <point x="1045" y="136"/>
      <point x="1134" y="214"/>
      <point x="1182" y="300" type="curve" smooth="yes"/>
      <point x="1194" y="322"/>
      <point x="1192" y="349"/>
      <point x="1177" y="367" type="curve" smooth="yes"/>
      <point x="1092" y="464"/>
      <point x="951" y="519"/>
      <point x="843" y="519" type="curve" smooth="yes"/>
      <point x="759" y="519"/>
      <point x="724" y="487"/>
      <point x="724" y="406" type="curve" smooth="yes"/>
      <point x="724" y="371"/>
      <point x="736" y="312"/>
      <point x="748" y="272" type="curve"/>
      <point x="690" y="234"/>
      <point x="609" y="207"/>
      <point x="541" y="207" type="curve" smooth="yes"/>
      <point x="508" y="207"/>
      <point x="475" y="210"/>
      <point x="467" y="219" type="curve"/>
      <point x="443" y="243"/>
      <point x="419" y="352"/>
      <point x="419" y="438" type="curve" smooth="yes"/>
      <point x="419" y="537"/>
      <point x="441" y="627"/>
      <point x="645" y="627" type="curve" smooth="yes"/>
      <point x="1031" y="627" type="line"/>
      <point x="1046" y="678"/>
      <point x="1054" y="721"/>
      <point x="1054" y="780" type="curve" smooth="yes"/>
      <point x="1054" y="845"/>
      <point x="1041" y="937"/>
      <point x="1028" y="998" type="curve"/>
      <point x="1470" y="998" type="line"/>
      <point x="1424" y="1187" type="line"/>
      <point x="-52" y="1187" type="line"/>
      <point x="-3" y="998" type="line"/>
      <point x="751" y="998" type="line"/>
      <point x="753" y="976"/>
      <point x="755" y="950"/>
      <point x="755" y="924" type="curve" smooth="yes"/>
      <point x="755" y="882"/>
      <point x="750" y="849"/>
      <point x="743" y="817" type="curve"/>
      <point x="527" y="817" type="line" smooth="yes"/>
      <point x="169" y="817"/>
      <point x="110" y="648"/>
      <point x="110" y="503" type="curve" smooth="yes"/>
      <point x="110" y="183"/>
      <point x="446" y="32"/>
      <point x="672" y="32" type="curve" smooth="yes"/>
      <point x="719" y="32"/>
      <point x="769" y="36"/>
      <point x="819" y="46" type="curve"/>
      <point x="827" y="24"/>
      <point x="835" y="2"/>
      <point x="845" y="-20" type="curve"/>
      <point x="704" y="-54"/>
      <point x="628" y="-160"/>
      <point x="628" y="-269" type="curve" smooth="yes"/>
      <point x="628" y="-457"/>
      <point x="818" y="-600"/>
      <point x="976" y="-600" type="curve" smooth="yes"/>
      <point x="1041" y="-600"/>
      <point x="1099" y="-587"/>
      <point x="1165" y="-541" type="curve"/>
      <point x="1082" y="-343" type="line"/>
      <point x="1014" y="-390"/>
      <point x="966" y="-406"/>
      <point x="910" y="-406" type="curve" smooth="yes"/>
      <point x="865" y="-406"/>
      <point x="829" y="-398"/>
      <point x="820" y="-392" type="curve" smooth="yes"/>
      <point x="811" y="-386"/>
      <point x="806" y="-349"/>
      <point x="806" y="-330" type="curve" smooth="yes"/>
      <point x="806" y="-258"/>
      <point x="874" y="-225"/>
      <point x="974" y="-225" type="curve" smooth="yes"/>
      <point x="1108" y="-225"/>
      <point x="1248" y="-336"/>
      <point x="1396" y="-534" type="curve"/>
      <point x="1482" y="-469" type="line"/>
      <point x="1469" y="-438"/>
      <point x="1417" y="-348"/>
      <point x="1377" y="-289" type="curve" smooth="yes"/>
    </contour>
    <contour>
      <point x="890" y="1187" type="move" name="top"/>
    </contour>
  </outline>
</glyph>
<glyph name="radeva.post2" format="1">
  <advance width="0"/>
  <outline>
    <contour>
      <point x="-382" y="479" type="line"/>
      <point x="-1089" y="32" type="line"/>
      <point x="-898" y="-170" type="line"/>
      <point x="-281" y="367" type="line"/>
    </contour>
  </outline>
</glyph>
<glyph name="uni0915094D" format="1">
  <advance width="1291"/>
  <note>
    dK.half
  </note>
  <outline>
    <contour>
      <point x="1432" y="736" type="line"/>
      <point x="1384" y="774"/>
      <point x="1301" y="811"/>
      <point x="1220" y="811" type="curve" smooth="yes"/>
      <point x="1147" y="811"/>
      <point x="1067" y="788"/>
      <point x="996" y="740" type="curve"/>
      <point x="996" y="998" type="line"/>
      <point x="1339" y="998" type="line"/>
      <point x="1292" y="1187" type="line"/>
      <point x="-47" y="1187" type="line"/>
      <point x="-1" y="998" type="line"/>
      <point x="699" y="998" type="line"/>
      <point x="699" y="680" type="line"/>
      <point x="588" y="783"/>
      <point x="483" y="834"/>
      <point x="366" y="834" type="curve" smooth="yes"/>
      <point x="166" y="834"/>
      <point x="43" y="713"/>
      <point x="43" y="520" type="curve" smooth="yes"/>
      <point x="43" y="306"/>
      <point x="277" y="125"/>
      <point x="503" y="125" type="curve" smooth="yes"/>
      <point x="569" y="125"/>
      <point x="642" y="142"/>
      <point x="699" y="173" type="curve"/>
      <point x="699" y="-43" type="line"/>
      <point x="996" y="-99" type="line"/>
      <point x="996" y="397" type="line"/>
      <point x="1059" y="491"/>
      <point x="1200" y="606"/>
      <point x="1304" y="606" type="curve" smooth="yes"/>
      <point x="1354" y="606"/>
      <point x="1411" y="599"/>
      <point x="1505" y="509" type="curve"/>
    </contour>
    <contour>
      <point x="699" y="478" type="line"/>
      <point x="609" y="355"/>
      <point x="468" y="300"/>
      <point x="396" y="300" type="curve" smooth="yes"/>
      <point x="385" y="300"/>
      <point x="376" y="301"/>
      <point x="370" y="313" type="curve" smooth="yes"/>
      <point x="351" y="352"/>
      <point x="336" y="419"/>
      <point x="336" y="469" type="curve" smooth="yes"/>
      <point x="336" y="581"/>
      <point x="418" y="632"/>
      <point x="517" y="632" type="curve" smooth="yes"/>
      <point x="581" y="632"/>
      <point x="643" y="614"/>
      <point x="699" y="588" type="curve"/>
    </contour>
  </outline>
</glyph>
<glyph name="uni0915094D0915" format="1">
  <advance width="1662"/>
  <note>
    dKKa
  </note>
  <outline>
    <contour>
      <point x="1147" y="919"/>
      <point x="1060" y="895"/>
      <point x="993" y="848" type="curve"/>
      <point x="993" y="998" type="line"/>
      <point x="1714" y="998" type="line"/>
      <point x="1668" y="1187" type="line"/>
      <point x="-52" y="1187" type="line"/>
      <point x="-4" y="998" type="line"/>
      <point x="696" y="998" type="line"/>
      <point x="696" y="770" type="line"/>
      <point x="585" y="873"/>
      <point x="480" y="914"/>
      <point x="363" y="914" type="curve" smooth="yes"/>
      <point x="163" y="914"/>
      <point x="40" y="803"/>
      <point x="40" y="610" type="curve" smooth="yes"/>
      <point x="40" y="529"/>
      <point x="74" y="460"/>
      <point x="128" y="405" type="curve"/>
      <point x="71" y="353"/>
      <point x="40" y="277"/>
      <point x="40" y="180" type="curve" smooth="yes"/>
      <point x="40" y="-34"/>
      <point x="274" y="-165"/>
      <point x="500" y="-165" type="curve" smooth="yes"/>
      <point x="566" y="-165"/>
      <point x="639" y="-156"/>
      <point x="696" y="-126" type="curve"/>
      <point x="696" y="-202" type="line"/>
      <point x="993" y="-259" type="line"/>
      <point x="993" y="85" type="line"/>
      <point x="1077" y="204"/>
      <point x="1232" y="298"/>
      <point x="1345" y="298" type="curve" smooth="yes"/>
      <point x="1360" y="298"/>
      <point x="1386" y="296"/>
      <point x="1396" y="287" type="curve"/>
      <point x="1402" y="281"/>
      <point x="1404" y="261"/>
      <point x="1404" y="245" type="curve" smooth="yes"/>
      <point x="1404" y="139"/>
      <point x="1292" y="52"/>
      <point x="1118" y="-65" type="curve"/>
      <point x="1360" y="-242" type="line"/>
      <point x="1493" y="-149"/>
      <point x="1609" y="-45"/>
      <point x="1609" y="87" type="curve" smooth="yes"/>
      <point x="1609" y="161"/>
      <point x="1574" y="248"/>
      <point x="1519" y="321" type="curve"/>
      <point x="1570" y="378"/>
      <point x="1609" y="446"/>
      <point x="1609" y="517" type="curve" smooth="yes"/>
      <point x="1609" y="687"/>
      <point x="1428" y="919"/>
      <point x="1229" y="919" type="curve" smooth="yes"/>
    </contour>
    <contour>
      <point x="993" y="515" type="line"/>
      <point x="1077" y="634"/>
      <point x="1232" y="728"/>
      <point x="1345" y="728" type="curve" smooth="yes"/>
      <point x="1360" y="728"/>
      <point x="1386" y="726"/>
      <point x="1396" y="717" type="curve"/>
      <point x="1402" y="711"/>
      <point x="1404" y="691"/>
      <point x="1404" y="675" type="curve" smooth="yes"/>
      <point x="1404" y="608"/>
      <point x="1354" y="545"/>
      <point x="1282" y="484" type="curve"/>
      <point x="1265" y="487"/>
      <point x="1247" y="489"/>
      <point x="1229" y="489" type="curve" smooth="yes"/>
      <point x="1147" y="489"/>
      <point x="1060" y="465"/>
      <point x="993" y="418" type="curve"/>
    </contour>
    <contour>
      <point x="578" y="712"/>
      <point x="638" y="696"/>
      <point x="696" y="676" type="curve"/>
      <point x="696" y="598" type="line"/>
      <point x="605" y="477"/>
      <point x="459" y="440"/>
      <point x="387" y="440" type="curve" smooth="yes"/>
      <point x="376" y="440"/>
      <point x="367" y="441"/>
      <point x="361" y="453" type="curve" smooth="yes"/>
      <point x="342" y="492"/>
      <point x="333" y="529"/>
      <point x="333" y="579" type="curve" smooth="yes"/>
      <point x="333" y="691"/>
      <point x="415" y="712"/>
      <point x="514" y="712" type="curve" smooth="yes"/>
    </contour>
    <contour>
      <point x="376" y="10"/>
      <point x="367" y="11"/>
      <point x="361" y="23" type="curve" smooth="yes"/>
      <point x="342" y="62"/>
      <point x="333" y="99"/>
      <point x="333" y="149" type="curve" smooth="yes"/>
      <point x="333" y="221"/>
      <point x="367" y="255"/>
      <point x="418" y="271" type="curve"/>
      <point x="445" y="267"/>
      <point x="473" y="265"/>
      <point x="500" y="265" type="curve" smooth="yes"/>
      <point x="566" y="265"/>
      <point x="639" y="274"/>
      <point x="696" y="304" type="curve"/>
      <point x="696" y="168" type="line"/>
      <point x="605" y="47"/>
      <point x="459" y="10"/>
      <point x="387" y="10" type="curve" smooth="yes"/>
    </contour>
    <contour>
      <point x="845" y="1187" type="move" name="top"/>
    </contour>
    <contour>
      <point x="845" y="-200" type="move" name="bottom"/>
    </contour>
  </outline>
</glyph>
<glyph name="uni0915094D0930.alt" format="1">
  <advance width="1684"/>
  <note>
    dKRa.alt
  </note>
  <outline>
    <contour>
      <point x="1185" y="812"/>
      <point x="1116" y="790"/>
      <point x="1056" y="756" type="curve"/>
      <point x="1056" y="998" type="line"/>
      <point x="1731" y="998" type="line"/>
      <point x="1685" y="1187" type="line"/>
      <point x="-52" y="1187" type="line"/>
      <point x="-3" y="998" type="line"/>
      <point x="755" y="998" type="line"/>
      <point x="755" y="681" type="line"/>
      <point x="724" y="705" type="line" smooth="yes"/>
      <point x="540" y="845"/>
      <point x="437" y="876"/>
      <point x="353" y="875" type="curve" smooth="yes"/>
      <point x="266" y="874"/>
      <point x="154" y="855"/>
      <point x="31" y="748" type="curve"/>
      <point x="209" y="503" type="line"/>
      <point x="357" y="611"/>
      <point x="417" y="614"/>
      <point x="476" y="614" type="curve" smooth="yes"/>
      <point x="536" y="614"/>
      <point x="586" y="600"/>
      <point x="697" y="517" type="curve"/>
      <point x="106" y="222" type="line"/>
      <point x="293" y="-50" type="line"/>
      <point x="755" y="335" type="line"/>
      <point x="755" y="-42" type="line"/>
      <point x="1056" y="-98" type="line"/>
      <point x="1056" y="448" type="line"/>
      <point x="1144" y="545"/>
      <point x="1271" y="621"/>
      <point x="1368" y="621" type="curve" smooth="yes"/>
      <point x="1383" y="621"/>
      <point x="1409" y="619"/>
      <point x="1419" y="610" type="curve"/>
      <point x="1425" y="604"/>
      <point x="1427" y="584"/>
      <point x="1427" y="568" type="curve" smooth="yes"/>
      <point x="1427" y="462"/>
      <point x="1305" y="355"/>
      <point x="1130" y="224" type="curve"/>
      <point x="1386" y="44" type="line"/>
      <point x="1514" y="133"/>
      <point x="1632" y="260"/>
      <point x="1632" y="410" type="curve" smooth="yes"/>
      <point x="1632" y="580"/>
      <point x="1451" y="812"/>
      <point x="1252" y="812" type="curve" smooth="yes"/>
    </contour>
    <contour>
      <point x="906" y="1187" type="move" name="top"/>
    </contour>
    <contour>
      <point x="906" y="0" type="move" name="bottom"/>
    </contour>
  </outline>
</glyph>
<glyph name="uni0917094D0932.loclMAR" format="1">
  <advance width="1348"/>
  <note>
    dGLa.MAR
  </note>
  <outline>
    <contour>
      <point x="1224" y="998" type="line"/>
      <point x="1400" y="998" type="line"/>
      <point x="1355" y="1187" type="line"/>
      <point x="-50" y="1187" type="line"/>
      <point x="0" y="998" type="line"/>
      <point x="350" y="998" type="line"/>
      <point x="357" y="938"/>
      <point x="360" y="882"/>
      <point x="360" y="843" type="curve" smooth="yes"/>
      <point x="360" y="792"/>
      <point x="358" y="762"/>
      <point x="351" y="721" type="curve"/>
      <point x="337" y="722"/>
      <point x="323" y="722"/>
      <point x="309" y="722" type="curve" smooth="yes"/>
      <point x="243" y="721"/>
      <point x="174" y="713"/>
      <point x="131" y="696" type="curve"/>
      <point x="115" y="689"/>
      <point x="107" y="676"/>
      <point x="107" y="661" type="curve" smooth="yes"/>
      <point x="107" y="570"/>
      <point x="384" y="288"/>
      <point x="514" y="288" type="curve" smooth="yes"/>
      <point x="529" y="288"/>
      <point x="542" y="291"/>
      <point x="555" y="303" type="curve" smooth="yes"/>
      <point x="638" y="385"/>
      <point x="650" y="589"/>
      <point x="650" y="688" type="curve" smooth="yes"/>
      <point x="650" y="774"/>
      <point x="641" y="892"/>
      <point x="619" y="998" type="curve"/>
      <point x="929" y="998" type="line"/>
      <point x="929" y="219" type="line"/>
      <point x="844" y="209"/>
      <point x="762" y="171"/>
      <point x="707" y="106" type="curve"/>
      <point x="699" y="98" type="line"/>
      <point x="606" y="173"/>
      <point x="515" y="216"/>
      <point x="432" y="216" type="curve" smooth="yes"/>
      <point x="282" y="216"/>
      <point x="136" y="135"/>
      <point x="136" y="-50" type="curve" smooth="yes"/>
      <point x="136" y="-242"/>
      <point x="283" y="-401"/>
      <point x="605" y="-564" type="curve"/>
      <point x="666" y="-466" type="line"/>
      <point x="473" y="-316"/>
      <point x="417" y="-212"/>
      <point x="417" y="-94" type="curve" smooth="yes"/>
      <point x="417" y="4"/>
      <point x="474" y="57"/>
      <point x="550" y="57" type="curve" smooth="yes"/>
      <point x="578" y="57"/>
      <point x="619" y="46"/>
      <point x="657" y="31" type="curve"/>
      <point x="632" y="-21"/>
      <point x="618" y="-83"/>
      <point x="608" y="-155" type="curve"/>
      <point x="856" y="-209" type="line"/>
      <point x="892" y="24"/>
      <point x="964" y="78"/>
      <point x="1039" y="78" type="curve" smooth="yes"/>
      <point x="1080" y="77"/>
      <point x="1114" y="64"/>
      <point x="1123" y="51" type="curve"/>
      <point x="1135" y="35"/>
      <point x="1141" y="-14"/>
      <point x="1141" y="-37" type="curve" smooth="yes"/>
      <point x="1141" y="-202"/>
      <point x="994" y="-308"/>
      <point x="845" y="-426" type="curve"/>
      <point x="1088" y="-573" type="line"/>
      <point x="1288" y="-417"/>
      <point x="1336" y="-279"/>
      <point x="1336" y="-157" type="curve" smooth="yes"/>
      <point x="1336" y="-69"/>
      <point x="1291" y="26"/>
      <point x="1224" y="98" type="curve"/>
    </contour>
    <contour>
      <point x="1077" y="1187" type="move" name="top"/>
    </contour>
    <contour>
      <point x="1016" y="-440" type="move" name="bottom"/>
    </contour>
  </outline>
</glyph>
<glyph name="uni0919094D0917" format="1">
  <advance width="1517"/>
  <note>
    dNgGa
  </note>
  <outline>
    <contour>
      <point x="1002" y="668"/>
      <point x="980" y="674"/>
      <point x="958" y="674" type="curve" smooth="yes"/>
      <point x="832" y="674"/>
      <point x="676" y="603"/>
      <point x="586" y="603" type="curve" smooth="yes"/>
      <point x="575" y="603"/>
      <point x="567" y="610"/>
      <point x="563" y="617" type="curve"/>
      <point x="555" y="633"/>
      <point x="547" y="652"/>
      <point x="547" y="674" type="curve" smooth="yes"/>
      <point x="547" y="731"/>
      <point x="596" y="739"/>
      <point x="689" y="739" type="curve" smooth="yes"/>
      <point x="1062" y="739" type="line"/>
      <point x="1066" y="779"/>
      <point x="1067" y="788"/>
      <point x="1067" y="810" type="curve" smooth="yes"/>
      <point x="1067" y="868"/>
      <point x="1061" y="924"/>
      <point x="1039" y="998" type="curve"/>
      <point x="1569" y="998" type="line"/>
      <point x="1521" y="1187" type="line"/>
      <point x="-52" y="1187" type="line"/>
      <point x="-2" y="998" type="line"/>
      <point x="776" y="998" type="line"/>
      <point x="777" y="990"/>
      <point x="777" y="985"/>
      <point x="777" y="968" type="curve" smooth="yes"/>
      <point x="777" y="951"/>
      <point x="777" y="932"/>
      <point x="773" y="912" type="curve"/>
      <point x="557" y="912" type="line" smooth="yes"/>
      <point x="414" y="912"/>
      <point x="242" y="887"/>
      <point x="242" y="710" type="curve" smooth="yes"/>
      <point x="242" y="596"/>
      <point x="444" y="396"/>
      <point x="640" y="396" type="curve" smooth="yes"/>
      <point x="782" y="396"/>
      <point x="957" y="480"/>
      <point x="1008" y="480" type="curve" smooth="yes"/>
      <point x="1018" y="480"/>
      <point x="1024" y="480"/>
      <point x="1029" y="477" type="curve"/>
      <point x="1030" y="472"/>
      <point x="1031" y="465"/>
      <point x="1031" y="458" type="curve" smooth="yes"/>
      <point x="1030" y="375"/>
      <point x="901" y="302"/>
      <point x="741" y="297" type="curve" smooth="yes"/>
      <point x="589" y="292"/>
      <point x="390" y="321"/>
      <point x="135" y="623" type="curve"/>
      <point x="23" y="547" type="line"/>
      <point x="122" y="396"/>
      <point x="234" y="289"/>
      <point x="352" y="216" type="curve"/>
      <point x="361" y="173"/>
      <point x="364" y="133"/>
      <point x="364" y="86" type="curve" smooth="yes"/>
      <point x="364" y="41"/>
      <point x="362" y="16"/>
      <point x="355" y="-22" type="curve"/>
      <point x="342" y="-21"/>
      <point x="330" y="-21"/>
      <point x="318" y="-21" type="curve" smooth="yes"/>
      <point x="259" y="-22"/>
      <point x="198" y="-28"/>
      <point x="159" y="-42" type="curve"/>
      <point x="146" y="-48"/>
      <point x="139" y="-61"/>
      <point x="139" y="-75" type="curve" smooth="yes"/>
      <point x="139" y="-155"/>
      <point x="384" y="-405"/>
      <point x="500" y="-405" type="curve" smooth="yes"/>
      <point x="514" y="-405"/>
      <point x="523" y="-403"/>
      <point x="536" y="-393" type="curve"/>
      <point x="610" y="-318"/>
      <point x="619" y="-137"/>
      <point x="619" y="-49" type="curve" smooth="yes"/>
      <point x="619" y="-1"/>
      <point x="612" y="49"/>
      <point x="602" y="113" type="curve"/>
      <point x="677" y="96"/>
      <point x="753" y="89"/>
      <point x="829" y="92" type="curve"/>
      <point x="829" y="-518" type="line"/>
      <point x="1090" y="-568" type="line"/>
      <point x="1090" y="164" type="line"/>
      <point x="1157" y="209"/>
      <point x="1198" y="274"/>
      <point x="1200" y="359" type="curve" smooth="yes"/>
      <point x="1200" y="463"/>
      <point x="1106" y="604"/>
      <point x="1023" y="656" type="curve"/>
    </contour>
    <contour>
      <point x="1304" y="845"/>
      <point x="1173" y="729"/>
      <point x="1173" y="665" type="curve" smooth="yes"/>
      <point x="1173" y="616"/>
      <point x="1298" y="485"/>
      <point x="1350" y="485" type="curve" smooth="yes"/>
      <point x="1400" y="485"/>
      <point x="1531" y="607"/>
      <point x="1531" y="665" type="curve" smooth="yes"/>
      <point x="1531" y="704"/>
      <point x="1420" y="845"/>
      <point x="1351" y="845" type="curve" smooth="yes"/>
    </contour>
    <contour>
      <point x="898" y="1187" type="move" name="top"/>
    </contour>
    <contour>
      <point x="950" y="-470" type="move" name="bottom"/>
    </contour>
  </outline>
</glyph>
<glyph name="uni0919094D0918" format="1">
  <advance width="1504"/>
  <note>
    dNgGha
  </note>
  <outline>
    <contour>
      <point x="1012" y="668"/>
      <point x="990" y="674"/>
      <point x="968" y="674" type="curve" smooth="yes"/>
      <point x="842" y="674"/>
      <point x="686" y="603"/>
      <point x="596" y="603" type="curve" smooth="yes"/>
      <point x="585" y="603"/>
      <point x="577" y="610"/>
      <point x="573" y="617" type="curve"/>
      <point x="565" y="633"/>
      <point x="557" y="652"/>
      <point x="557" y="674" type="curve" smooth="yes"/>
      <point x="557" y="731"/>
      <point x="606" y="739"/>
      <point x="699" y="739" type="curve" smooth="yes"/>
      <point x="1072" y="739" type="line"/>
      <point x="1076" y="775"/>
      <point x="1077" y="792"/>
      <point x="1077" y="810" type="curve" smooth="yes"/>
      <point x="1077" y="868"/>
      <point x="1071" y="924"/>
      <point x="1049" y="998" type="curve"/>
      <point x="1556" y="998" type="line"/>
      <point x="1509" y="1187" type="line"/>
      <point x="-52" y="1187" type="line"/>
      <point x="-2" y="998" type="line"/>
      <point x="786" y="998" type="line"/>
      <point x="787" y="990"/>
      <point x="787" y="985"/>
      <point x="787" y="968" type="curve" smooth="yes"/>
      <point x="787" y="951"/>
      <point x="787" y="932"/>
      <point x="783" y="912" type="curve"/>
      <point x="567" y="912" type="line" smooth="yes"/>
      <point x="424" y="912"/>
      <point x="252" y="887"/>
      <point x="252" y="710" type="curve" smooth="yes"/>
      <point x="252" y="596"/>
      <point x="454" y="396"/>
      <point x="650" y="396" type="curve" smooth="yes"/>
      <point x="792" y="396"/>
      <point x="967" y="480"/>
      <point x="1018" y="480" type="curve" smooth="yes"/>
      <point x="1028" y="480"/>
      <point x="1034" y="480"/>
      <point x="1039" y="477" type="curve"/>
      <point x="1040" y="472"/>
      <point x="1041" y="465"/>
      <point x="1041" y="458" type="curve" smooth="yes"/>
      <point x="1040" y="375"/>
      <point x="911" y="302"/>
      <point x="751" y="297" type="curve" smooth="yes"/>
      <point x="595" y="292"/>
      <point x="397" y="322"/>
      <point x="142" y="625" type="curve"/>
      <point x="32" y="546" type="line"/>
      <point x="105" y="437"/>
      <point x="184" y="349"/>
      <point x="267" y="281" type="curve"/>
      <point x="188" y="247"/>
      <point x="142" y="185"/>
      <point x="150" y="105" type="curve" smooth="yes"/>
      <point x="156" y="43"/>
      <point x="218" y="-5"/>
      <point x="304" y="-47" type="curve"/>
      <point x="286" y="-60"/>
      <point x="270" y="-74"/>
      <point x="256" y="-89" type="curve"/>
      <point x="229" y="-125"/>
      <point x="208" y="-157"/>
      <point x="208" y="-210" type="curve" smooth="yes"/>
      <point x="208" y="-446"/>
      <point x="493" y="-556"/>
      <point x="659" y="-556" type="curve" smooth="yes"/>
      <point x="722" y="-556"/>
      <point x="796" y="-544"/>
      <point x="849" y="-494" type="curve"/>
      <point x="849" y="-625" type="line"/>
      <point x="1084" y="-676" type="line"/>
      <point x="1084" y="157" type="line"/>
      <point x="1160" y="201"/>
      <point x="1208" y="268"/>
      <point x="1210" y="359" type="curve" smooth="yes"/>
      <point x="1210" y="463"/>
      <point x="1116" y="604"/>
      <point x="1033" y="656" type="curve"/>
    </contour>
    <contour>
      <point x="1284" y="845"/>
      <point x="1153" y="729"/>
      <point x="1153" y="665" type="curve" smooth="yes"/>
      <point x="1153" y="616"/>
      <point x="1278" y="485"/>
      <point x="1330" y="485" type="curve" smooth="yes"/>
      <point x="1380" y="485"/>
      <point x="1511" y="607"/>
      <point x="1511" y="665" type="curve" smooth="yes"/>
      <point x="1511" y="704"/>
      <point x="1400" y="845"/>
      <point x="1331" y="845" type="curve" smooth="yes"/>
    </contour>
    <contour>
      <point x="849" y="-213" type="line"/>
      <point x="799" y="-272"/>
      <point x="681" y="-405"/>
      <point x="533" y="-405" type="curve" smooth="yes"/>
      <point x="510" y="-405"/>
      <point x="476" y="-402"/>
      <point x="468" y="-395" type="curve" smooth="yes"/>
      <point x="457" y="-386"/>
      <point x="446" y="-367"/>
      <point x="445" y="-336" type="curve"/>
      <point x="445" y="-271"/>
      <point x="551" y="-208"/>
      <point x="748" y="-180" type="curve"/>
      <point x="654" y="47" type="line"/>
      <point x="550" y="41"/>
      <point x="469" y="27"/>
      <point x="404" y="4" type="curve"/>
      <point x="394" y="18"/>
      <point x="387" y="35"/>
      <point x="387" y="57" type="curve" smooth="yes"/>
      <point x="387" y="107"/>
      <point x="426" y="138"/>
      <point x="477" y="152" type="curve"/>
      <point x="597" y="101"/>
      <point x="721" y="83"/>
      <point x="844" y="92" type="curve" smooth="yes"/>
      <point x="849" y="92" type="line"/>
    </contour>
    <contour>
      <point x="908" y="1187" type="move" name="top"/>
    </contour>
    <contour>
      <point x="970" y="-580" type="move" name="bottom"/>
    </contour>
  </outline>
</glyph>
<glyph name="uni0919094D0918094D0930" format="1">
  <advance width="1504"/>
  <note>
    dNgGhRa
  </note>
  <outline>
    <contour>
      <point x="905" y="-272" type="line"/>
      <point x="272" y="-594" type="line"/>
      <point x="440" y="-803" type="line"/>
      <point x="988" y="-387" type="line"/>
    </contour>
    <component base="uni0919094D0918"/>
    <contour>
      <point x="909" y="1187" type="move" name="top"/>
    </contour>
    <contour>
      <point x="951" y="-610" type="move" name="bottom"/>
    </contour>
  </outline>
</glyph>
<glyph name="uni091A094D0930" format="1">
  <advance width="1465"/>
  <note>
    dCRa
  </note>
  <outline>
    <contour>
      <point x="1060" y="349" type="line"/>
      <point x="376" y="-38" type="line"/>
      <point x="563" y="-250" type="line"/>
      <point x="1133" y="235" type="line"/>
    </contour>
    <component base="cadeva"/>
  </outline>
</glyph>
<glyph name="uni091B094D0935" format="1">
  <advance width="1411"/>
  <note>
    dChVa
  </note>
  <outline>
    <contour>
      <point x="1167" y="869"/>
      <point x="1169" y="887"/>
      <point x="1169" y="907" type="curve" smooth="yes"/>
      <point x="1169" y="937"/>
      <point x="1159" y="968"/>
      <point x="1145" y="998" type="curve"/>
      <point x="1463" y="998" type="line"/>
      <point x="1422" y="1187" type="line"/>
      <point x="-52" y="1187" type="line"/>
      <point x="-3" y="998" type="line"/>
      <point x="109" y="998" type="line"/>
      <point x="107" y="987"/>
      <point x="106" y="976"/>
      <point x="106" y="965" type="curve" smooth="yes"/>
      <point x="106" y="893"/>
      <point x="148" y="821"/>
      <point x="238" y="768" type="curve"/>
      <point x="161" y="724"/>
      <point x="109" y="663"/>
      <point x="109" y="571" type="curve" smooth="yes"/>
      <point x="109" y="346"/>
      <point x="439" y="144"/>
      <point x="750" y="144" type="curve" smooth="yes"/>
      <point x="786" y="144"/>
      <point x="821" y="146"/>
      <point x="855" y="149" type="curve"/>
      <point x="855" y="-15" type="line"/>
      <point x="692" y="83"/>
      <point x="633" y="115"/>
      <point x="505" y="115" type="curve" smooth="yes"/>
      <point x="368" y="117"/>
      <point x="209" y="46"/>
      <point x="209" y="-138" type="curve" smooth="yes"/>
      <point x="209" y="-355"/>
      <point x="476" y="-510"/>
      <point x="678" y="-510" type="curve" smooth="yes"/>
      <point x="723" y="-510"/>
      <point x="785" y="-503"/>
      <point x="855" y="-473" type="curve"/>
      <point x="855" y="-581" type="line"/>
      <point x="1112" y="-641" type="line"/>
      <point x="1112" y="212" type="line"/>
      <point x="1257" y="277"/>
      <point x="1344" y="386"/>
      <point x="1344" y="522" type="curve" smooth="yes"/>
      <point x="1344" y="663"/>
      <point x="1273" y="783"/>
      <point x="1164" y="850" type="curve"/>
    </contour>
    <contour>
      <point x="506" y="318"/>
      <point x="430" y="325"/>
      <point x="407" y="338" type="curve" smooth="yes"/>
      <point x="395" y="345"/>
      <point x="378" y="398"/>
      <point x="378" y="453" type="curve" smooth="yes"/>
      <point x="378" y="565"/>
      <point x="530" y="586"/>
      <point x="673" y="620" type="curve"/>
      <point x="571" y="871" type="line"/>
      <point x="518" y="861"/>
      <point x="463" y="849"/>
      <point x="410" y="835" type="curve"/>
      <point x="402" y="854"/>
      <point x="399" y="874"/>
      <point x="399" y="893" type="curve" smooth="yes"/>
      <point x="399" y="962"/>
      <point x="450" y="998"/>
      <point x="544" y="998" type="curve" smooth="yes"/>
      <point x="949" y="998" type="line"/>
      <point x="949" y="986" type="line" smooth="yes"/>
      <point x="949" y="960"/>
      <point x="945" y="935"/>
      <point x="936" y="907" type="curve"/>
      <point x="818" y="901"/>
      <point x="719" y="842"/>
      <point x="719" y="720" type="curve" smooth="yes"/>
      <point x="719" y="629"/>
      <point x="792" y="542"/>
      <point x="1000" y="475" type="curve"/>
      <point x="902" y="386"/>
      <point x="737" y="318"/>
      <point x="549" y="318" type="curve" smooth="yes"/>
    </contour>
    <contour>
      <point x="966" y="743"/>
      <point x="1004" y="777"/>
      <point x="1052" y="777" type="curve" smooth="yes"/>
      <point x="1059" y="777"/>
      <point x="1071" y="777"/>
      <point x="1074" y="774" type="curve"/>
      <point x="1082" y="763"/>
      <point x="1096" y="716"/>
      <point x="1096" y="654" type="curve" smooth="yes"/>
      <point x="1096" y="620"/>
      <point x="1085" y="585"/>
      <point x="1065" y="551" type="curve"/>
      <point x="991" y="593"/>
      <point x="966" y="634"/>
      <point x="966" y="681" type="curve" smooth="yes"/>
    </contour>
    <contour>
      <point x="561" y="-331"/>
      <point x="550" y="-332"/>
      <point x="545" y="-323" type="curve"/>
      <point x="523" y="-288"/>
      <point x="514" y="-236"/>
      <point x="514" y="-196" type="curve" smooth="yes"/>
      <point x="514" y="-119"/>
      <point x="564" y="-80"/>
      <point x="656" y="-80" type="curve" smooth="yes"/>
      <point x="720" y="-80"/>
      <point x="784" y="-93"/>
      <point x="855" y="-115" type="curve"/>
      <point x="855" y="-188" type="line"/>
      <point x="771" y="-306"/>
      <point x="642" y="-331"/>
      <point x="573" y="-331" type="curve" smooth="yes"/>
    </contour>
    <contour>
      <point x="1018" y="1187" type="move" name="top"/>
    </contour>
    <contour>
      <point x="984" y="-550" type="move" name="bottom"/>
    </contour>
  </outline>
</glyph>
<glyph name="uni091C094D091E" format="1">
  <advance width="1478"/>
  <note>
    dJNya
  </note>
  <outline>
    <contour>
      <point x="1485" y="1187" type="line"/>
      <point x="-52" y="1187" type="line"/>
      <point x="-3" y="998" type="line"/>
      <point x="1061" y="998" type="line"/>
      <point x="1061" y="802" type="line"/>
      <point x="343" y="802" type="line"/>
      <point x="376" y="634" type="line"/>
      <point x="535" y="589"/>
      <point x="603" y="519"/>
      <point x="603" y="418" type="curve" smooth="yes"/>
      <point x="603" y="300"/>
      <point x="511" y="220"/>
      <point x="380" y="223" type="curve"/>
      <point x="348" y="314"/>
      <point x="314" y="410"/>
      <point x="266" y="410" type="curve" smooth="yes"/>
      <point x="176" y="410"/>
      <point x="38" y="265"/>
      <point x="38" y="191" type="curve" smooth="yes"/>
      <point x="38" y="108"/>
      <point x="166" y="32"/>
      <point x="335" y="5" type="curve"/>
      <point x="456" y="-218"/>
      <point x="548" y="-303"/>
      <point x="715" y="-303" type="curve" smooth="yes"/>
      <point x="780" y="-303"/>
      <point x="835" y="-287"/>
      <point x="910" y="-248" type="curve"/>
      <point x="808" y="-37" type="line"/>
      <point x="738" y="-72"/>
      <point x="702" y="-78"/>
      <point x="675" y="-78" type="curve" smooth="yes"/>
      <point x="616" y="-78"/>
      <point x="542" y="-75"/>
      <point x="465" y="-5" type="curve"/>
      <point x="468" y="-5" type="line" smooth="yes"/>
      <point x="696" y="-5"/>
      <point x="895" y="102"/>
      <point x="895" y="333" type="curve" smooth="yes"/>
      <point x="895" y="435"/>
      <point x="817" y="558"/>
      <point x="670" y="602" type="curve"/>
      <point x="1061" y="602" type="line"/>
      <point x="1061" y="-44" type="line"/>
      <point x="1346" y="-102" type="line"/>
      <point x="1346" y="998" type="line"/>
      <point x="1530" y="998" type="line"/>
    </contour>
    <contour>
      <point x="1204" y="1187" type="move" name="top"/>
    </contour>
    <contour>
      <point x="1204" y="0" type="move" name="bottom"/>
    </contour>
  </outline>
</glyph>
<glyph name="uni0921094D092E" format="1">
  <advance width="2332"/>
  <note>
    dDdMa
  </note>
  <outline>
    <contour>
      <point x="2384" y="998" type="line"/>
      <point x="2338" y="1187" type="line"/>
      <point x="1123" y="1187" type="line"/>
      <point x="1172" y="998" type="line"/>
      <point x="1906" y="998" type="line"/>
      <point x="1906" y="438" type="line"/>
      <point x="1660" y="438" type="line"/>
      <point x="1660" y="525" type="line" smooth="yes"/>
      <point x="1660" y="756"/>
      <point x="1488" y="868"/>
      <point x="1238" y="868" type="curve" smooth="yes"/>
      <point x="926" y="868" type="line"/>
      <point x="926" y="695" type="line"/>
      <point x="1155" y="695" type="line" smooth="yes"/>
      <point x="1270" y="694"/>
      <point x="1378" y="685"/>
      <point x="1391" y="668" type="curve" smooth="yes"/>
      <point x="1400" y="656"/>
      <point x="1411" y="594"/>
      <point x="1411" y="536" type="curve" smooth="yes"/>
      <point x="1411" y="434" type="line"/>
      <point x="1398" y="434" type="line" smooth="yes"/>
      <point x="1343" y="434"/>
      <point x="1248" y="430"/>
      <point x="1248" y="364" type="curve" smooth="yes"/>
      <point x="1248" y="257"/>
      <point x="1450" y="57"/>
      <point x="1600" y="57" type="curve" smooth="yes"/>
      <point x="1653" y="57"/>
      <point x="1659" y="153"/>
      <point x="1659" y="223" type="curve"/>
      <point x="1906" y="223" type="line"/>
      <point x="1906" y="-37" type="line"/>
      <point x="2204" y="-101" type="line"/>
      <point x="2204" y="998" type="line"/>
    </contour>
    <component base="ddadeva"/>
    <contour>
      <point x="2055" y="1187" type="move" name="top"/>
    </contour>
    <contour>
      <point x="2055" y="0" type="move" name="bottom"/>
    </contour>
  </outline>
</glyph>
<glyph name="uni0922094D0922" format="1">
  <advance width="1215"/>
  <note>
    dDdhDdha
  </note>
  <outline>
    <contour>
      <point x="1153" y="495"/>
      <point x="926" y="668"/>
      <point x="725" y="668" type="curve" smooth="yes"/>
      <point x="581" y="668"/>
      <point x="502" y="598"/>
      <point x="502" y="514" type="curve" smooth="yes"/>
      <point x="502" y="443"/>
      <point x="549" y="362"/>
      <point x="653" y="306" type="curve"/>
      <point x="570" y="290"/>
      <point x="447" y="309"/>
      <point x="434" y="322" type="curve" smooth="yes"/>
      <point x="407" y="348"/>
      <point x="356" y="404"/>
      <point x="356" y="504" type="curve" smooth="yes"/>
      <point x="356" y="723"/>
      <point x="516" y="737"/>
      <point x="703" y="737" type="curve" smooth="yes"/>
      <point x="1012" y="737" type="line"/>
      <point x="1017" y="804"/>
      <point x="1018" y="869"/>
      <point x="983" y="998" type="curve"/>
      <point x="1267" y="998" type="line"/>
      <point x="1218" y="1187" type="line"/>
      <point x="-51" y="1187" type="line"/>
      <point x="-1" y="998" type="line"/>
      <point x="718" y="998" type="line"/>
      <point x="718" y="975" type="line" smooth="yes"/>
      <point x="718" y="957"/>
      <point x="717" y="943"/>
      <point x="714" y="921" type="curve"/>
      <point x="547" y="921" type="line" smooth="yes"/>
      <point x="313" y="921"/>
      <point x="70" y="886"/>
      <point x="70" y="591" type="curve" smooth="yes"/>
      <point x="70" y="444"/>
      <point x="167" y="346"/>
      <point x="293" y="271" type="curve" smooth="yes"/>
      <point x="430" y="189"/>
      <point x="586" y="126"/>
      <point x="718" y="123" type="curve"/>
      <point x="718" y="115" type="line" smooth="yes"/>
      <point x="718" y="97"/>
      <point x="717" y="83"/>
      <point x="714" y="61" type="curve"/>
      <point x="547" y="61" type="line" smooth="yes"/>
      <point x="313" y="61"/>
      <point x="70" y="26"/>
      <point x="70" y="-269" type="curve" smooth="yes"/>
      <point x="70" y="-416"/>
      <point x="167" y="-514"/>
      <point x="293" y="-589" type="curve" smooth="yes"/>
      <point x="433" y="-673"/>
      <point x="594" y="-737"/>
      <point x="728" y="-737" type="curve" smooth="yes"/>
      <point x="1027" y="-737"/>
      <point x="1153" y="-614"/>
      <point x="1153" y="-477" type="curve" smooth="yes"/>
      <point x="1153" y="-365"/>
      <point x="926" y="-192"/>
      <point x="725" y="-192" type="curve" smooth="yes"/>
      <point x="581" y="-192"/>
      <point x="502" y="-262"/>
      <point x="502" y="-346" type="curve" smooth="yes"/>
      <point x="502" y="-417"/>
      <point x="549" y="-498"/>
      <point x="653" y="-554" type="curve"/>
      <point x="570" y="-570"/>
      <point x="447" y="-551"/>
      <point x="434" y="-538" type="curve" smooth="yes"/>
      <point x="407" y="-512"/>
      <point x="356" y="-456"/>
      <point x="356" y="-356" type="curve" smooth="yes"/>
      <point x="356" y="-137"/>
      <point x="516" y="-123"/>
      <point x="703" y="-123" type="curve" smooth="yes"/>
      <point x="1011" y="-123" type="line"/>
      <point x="1018" y="-26"/>
      <point x="1015" y="29"/>
      <point x="976" y="162" type="curve"/>
      <point x="1099" y="209"/>
      <point x="1153" y="293"/>
      <point x="1153" y="383" type="curve" smooth="yes"/>
    </contour>
    <contour>
      <point x="909" y="524"/>
      <point x="930" y="517"/>
      <point x="939" y="507" type="curve" smooth="yes"/>
      <point x="945" y="500"/>
      <point x="950" y="479"/>
      <point x="950" y="457" type="curve" smooth="yes"/>
      <point x="950" y="379"/>
      <point x="817" y="334"/>
      <point x="735" y="322" type="curve"/>
      <point x="735" y="489"/>
      <point x="823" y="524"/>
      <point x="886" y="524" type="curve" smooth="yes"/>
    </contour>
    <contour>
      <point x="909" y="-336"/>
      <point x="930" y="-343"/>
      <point x="939" y="-353" type="curve" smooth="yes"/>
      <point x="945" y="-360"/>
      <point x="950" y="-381"/>
      <point x="950" y="-403" type="curve" smooth="yes"/>
      <point x="950" y="-481"/>
      <point x="817" y="-526"/>
      <point x="735" y="-538" type="curve"/>
      <point x="735" y="-371"/>
      <point x="823" y="-336"/>
      <point x="886" y="-336" type="curve" smooth="yes"/>
    </contour>
    <contour>
      <point x="853" y="1187" type="move" name="top"/>
    </contour>
    <contour>
      <point x="694" y="-700" type="move" name="bottom"/>
    </contour>
  </outline>
</glyph>
<glyph name="uni0924094D0924" format="1">
  <advance width="1357"/>
  <note>
    dTTa
  </note>
  <outline>
    <contour>
      <point x="1362" y="1187" type="line"/>
      <point x="-52" y="1187" type="line"/>
      <point x="-3" y="998" type="line"/>
      <point x="939" y="998" type="line"/>
      <point x="939" y="823" type="line"/>
      <point x="18" y="823" type="line"/>
      <point x="66" y="609" type="line"/>
      <point x="239" y="609" type="line"/>
      <point x="220" y="577"/>
      <point x="209" y="539"/>
      <point x="209" y="493" type="curve" smooth="yes"/>
      <point x="209" y="321"/>
      <point x="356" y="122"/>
      <point x="576" y="-102" type="curve"/>
      <point x="709" y="-36" type="line"/>
      <point x="556" y="195"/>
      <point x="534" y="331"/>
      <point x="534" y="434" type="curve" smooth="yes"/>
      <point x="534" y="530"/>
      <point x="593" y="609"/>
      <point x="722" y="609" type="curve" smooth="yes"/>
      <point x="939" y="609" type="line"/>
      <point x="939" y="-41" type="line"/>
      <point x="1236" y="-100" type="line"/>
      <point x="1236" y="998" type="line"/>
      <point x="1409" y="998" type="line"/>
    </contour>
    <contour>
      <point x="1088" y="1187" type="move" name="top"/>
    </contour>
    <contour>
      <point x="1088" y="0" type="move" name="bottom"/>
    </contour>
  </outline>
</glyph>
<glyph name="uni0925094D0930" format="1">
  <advance width="1458"/>
  <note>
    dThRa
  </note>
  <outline>
    <contour>
      <point x="1464" y="1187" type="line"/>
      <point x="772" y="1187" type="line"/>
      <point x="822" y="998" type="line"/>
      <point x="1009" y="998" type="line"/>
      <point x="1009" y="617" type="line"/>
      <point x="890" y="433"/>
      <point x="760" y="354"/>
      <point x="594" y="354" type="curve" smooth="yes"/>
      <point x="529" y="354"/>
      <point x="473" y="365"/>
      <point x="426" y="392" type="curve"/>
      <point x="605" y="475"/>
      <point x="771" y="641"/>
      <point x="771" y="824" type="curve" smooth="yes"/>
      <point x="771" y="1005"/>
      <point x="562" y="1222"/>
      <point x="336" y="1222" type="curve" smooth="yes"/>
      <point x="160" y="1222"/>
      <point x="56" y="1137"/>
      <point x="56" y="993" type="curve" smooth="yes"/>
      <point x="56" y="867"/>
      <point x="159" y="741"/>
      <point x="367" y="697" type="curve"/>
      <point x="295" y="640"/>
      <point x="198" y="591"/>
      <point x="83" y="546" type="curve"/>
      <point x="143" y="413"/>
      <point x="327" y="185"/>
      <point x="606" y="136" type="curve"/>
      <point x="515" y="84"/>
      <point x="429" y="37"/>
      <point x="364" y="1" type="curve" smooth="yes"/>
      <point x="347" y="-8"/>
      <point x="340" y="-30"/>
      <point x="357" y="-50" type="curve" smooth="yes"/>
      <point x="375" y="-71"/>
      <point x="413" y="-114"/>
      <point x="498" y="-208" type="curve"/>
      <point x="505" y="-215"/>
      <point x="511" y="-217"/>
      <point x="520" y="-217" type="curve" smooth="yes"/>
      <point x="530" y="-217"/>
      <point x="536" y="-213"/>
      <point x="547" y="-204" type="curve" smooth="yes"/>
      <point x="1009" y="188" type="line"/>
      <point x="1009" y="-42" type="line"/>
      <point x="1306" y="-92" type="line"/>
      <point x="1306" y="998" type="line"/>
      <point x="1510" y="998" type="line"/>
    </contour>
    <contour>
      <point x="464" y="1070"/>
      <point x="487" y="1065"/>
      <point x="493" y="1058" type="curve"/>
      <point x="499" y="1050"/>
      <point x="510" y="1004"/>
      <point x="510" y="958" type="curve" smooth="yes"/>
      <point x="510" y="888"/>
      <point x="487" y="828"/>
      <point x="445" y="774" type="curve"/>
      <point x="376" y="824"/>
      <point x="340" y="880"/>
      <point x="340" y="957" type="curve" smooth="yes"/>
      <point x="340" y="1047"/>
      <point x="397" y="1070"/>
      <point x="443" y="1070" type="curve" smooth="yes"/>
    </contour>
    <contour>
      <point x="1158" y="1187" type="move" name="top"/>
    </contour>
    <contour>
      <point x="1158" y="0" type="move" name="bottom"/>
    </contour>
  </outline>
</glyph>
<glyph name="uni0926094D09170941" format="1">
  <advance width="1348"/>
  <outline>
    <contour>
      <point x="1014" y="26"/>
      <point x="954" y="71"/>
      <point x="898" y="139" type="curve"/>
      <point x="997" y="179"/>
      <point x="1088" y="258"/>
      <point x="1130" y="314" type="curve" smooth="yes"/>
      <point x="1144" y="333"/>
      <point x="1146" y="369"/>
      <point x="1131" y="387" type="curve" smooth="yes"/>
      <point x="1046" y="484"/>
      <point x="905" y="529"/>
      <point x="797" y="529" type="curve" smooth="yes"/>
      <point x="713" y="529"/>
      <point x="678" y="499"/>
      <point x="678" y="418" type="curve" smooth="yes"/>
      <point x="678" y="383"/>
      <point x="690" y="342"/>
      <point x="705" y="304" type="curve"/>
      <point x="638" y="262"/>
      <point x="545" y="247"/>
      <point x="495" y="247" type="curve" smooth="yes"/>
      <point x="462" y="247"/>
      <point x="429" y="250"/>
      <point x="421" y="259" type="curve"/>
      <point x="397" y="283"/>
      <point x="373" y="364"/>
      <point x="373" y="468" type="curve" smooth="yes"/>
      <point x="373" y="567"/>
      <point x="395" y="647"/>
      <point x="599" y="647" type="curve" smooth="yes"/>
      <point x="998" y="647" type="line"/>
      <point x="1003" y="690"/>
      <point x="1007" y="731"/>
      <point x="1008" y="776" type="curve" smooth="yes"/>
      <point x="1008" y="838"/>
      <point x="1001" y="907"/>
      <point x="982" y="998" type="curve"/>
      <point x="1389" y="998" type="line"/>
      <point x="1346" y="1187" type="line"/>
      <point x="-53" y="1187" type="line"/>
      <point x="-3" y="998" type="line"/>
      <point x="705" y="998" type="line"/>
      <point x="707" y="976"/>
      <point x="709" y="950"/>
      <point x="709" y="924" type="curve" smooth="yes"/>
      <point x="709" y="882"/>
      <point x="704" y="869"/>
      <point x="697" y="837" type="curve"/>
      <point x="481" y="837" type="line" smooth="yes"/>
      <point x="123" y="837"/>
      <point x="64" y="668"/>
      <point x="64" y="523" type="curve" smooth="yes"/>
      <point x="64" y="333"/>
      <point x="232" y="194"/>
      <point x="410" y="129" type="curve"/>
      <point x="414" y="106"/>
      <point x="415" y="84"/>
      <point x="415" y="60" type="curve" smooth="yes"/>
      <point x="415" y="17"/>
      <point x="413" y="2"/>
      <point x="406" y="-34" type="curve"/>
      <point x="397" y="-33"/>
      <point x="393" y="-33"/>
      <point x="381" y="-33" type="curve" smooth="yes"/>
      <point x="332" y="-34"/>
      <point x="273" y="-35"/>
      <point x="242" y="-49" type="curve" smooth="yes"/>
      <point x="230" y="-54"/>
      <point x="223" y="-61"/>
      <point x="223" y="-75" type="curve" smooth="yes"/>
      <point x="223" y="-143"/>
      <point x="425" y="-334"/>
      <point x="519" y="-334" type="curve" smooth="yes"/>
      <point x="531" y="-334"/>
      <point x="543" y="-332"/>
      <point x="553" y="-320" type="curve" smooth="yes"/>
      <point x="614" y="-248"/>
      <point x="628" y="-128"/>
      <point x="628" y="-58" type="curve" smooth="yes"/>
      <point x="628" y="-16"/>
      <point x="621" y="30"/>
      <point x="609" y="87" type="curve"/>
      <point x="628" y="87" type="line" smooth="yes"/>
      <point x="678" y="87"/>
      <point x="730" y="93"/>
      <point x="782" y="104" type="curve"/>
      <point x="805" y="37"/>
      <point x="830" y="-15"/>
      <point x="858" y="-60" type="curve"/>
      <point x="838" y="-72"/>
      <point x="816" y="-87"/>
      <point x="792" y="-105" type="curve"/>
      <point x="942" y="-297" type="line"/>
      <point x="1038" y="-217"/>
      <point x="1096" y="-202"/>
      <point x="1147" y="-202" type="curve" smooth="yes"/>
      <point x="1188" y="-202"/>
      <point x="1218" y="-214"/>
      <point x="1229" y="-227" type="curve"/>
      <point x="1234" y="-232"/>
      <point x="1239" y="-250"/>
      <point x="1239" y="-274" type="curve" smooth="yes"/>
      <point x="1239" y="-341"/>
      <point x="1175" y="-425"/>
      <point x="1037" y="-425" type="curve" smooth="yes"/>
      <point x="901" y="-425"/>
      <point x="813" y="-344"/>
      <point x="722" y="-249" type="curve"/>
      <point x="634" y="-319" type="line"/>
      <point x="702" y="-420"/>
      <point x="862" y="-619"/>
      <point x="1092" y="-619" type="curve" smooth="yes"/>
      <point x="1286" y="-619"/>
      <point x="1408" y="-505"/>
      <point x="1408" y="-360" type="curve" smooth="yes"/>
      <point x="1408" y="-228"/>
      <point x="1265" y="-43"/>
      <point x="1085" y="-16" type="curve"/>
    </contour>
    <contour>
      <point x="842" y="1187" type="move" name="top"/>
    </contour>
    <contour>
      <point x="984" y="-110" type="move" name="bottom"/>
    </contour>
  </outline>
</glyph>
<glyph name="uni0926094D09270941" format="1">
  <advance width="1473"/>
  <outline>
    <contour>
      <point x="1224" y="-42"/>
      <point x="1143" y="16"/>
      <point x="1078" y="128" type="curve"/>
      <point x="1101" y="137" type="line" smooth="yes"/>
      <point x="1202" y="177"/>
      <point x="1295" y="257"/>
      <point x="1338" y="314" type="curve" smooth="yes"/>
      <point x="1352" y="333"/>
      <point x="1354" y="369"/>
      <point x="1339" y="387" type="curve" smooth="yes"/>
      <point x="1254" y="484"/>
      <point x="1113" y="529"/>
      <point x="1005" y="529" type="curve" smooth="yes"/>
      <point x="921" y="529"/>
      <point x="886" y="499"/>
      <point x="886" y="418" type="curve" smooth="yes"/>
      <point x="886" y="383"/>
      <point x="898" y="342"/>
      <point x="913" y="304" type="curve"/>
      <point x="846" y="262"/>
      <point x="753" y="247"/>
      <point x="703" y="247" type="curve" smooth="yes"/>
      <point x="670" y="247"/>
      <point x="637" y="250"/>
      <point x="629" y="259" type="curve"/>
      <point x="605" y="283"/>
      <point x="581" y="364"/>
      <point x="581" y="468" type="curve" smooth="yes"/>
      <point x="581" y="567"/>
      <point x="603" y="647"/>
      <point x="807" y="647" type="curve" smooth="yes"/>
      <point x="1206" y="647" type="line"/>
      <point x="1211" y="690"/>
      <point x="1215" y="731"/>
      <point x="1216" y="776" type="curve" smooth="yes"/>
      <point x="1216" y="838"/>
      <point x="1209" y="907"/>
      <point x="1190" y="998" type="curve"/>
      <point x="1517" y="998" type="line"/>
      <point x="1474" y="1187" type="line"/>
      <point x="-54" y="1187" type="line"/>
      <point x="-4" y="998" type="line"/>
      <point x="913" y="998" type="line"/>
      <point x="915" y="976"/>
      <point x="917" y="950"/>
      <point x="917" y="924" type="curve" smooth="yes"/>
      <point x="917" y="882"/>
      <point x="912" y="869"/>
      <point x="905" y="837" type="curve"/>
      <point x="689" y="837" type="line" smooth="yes"/>
      <point x="331" y="837"/>
      <point x="272" y="668"/>
      <point x="272" y="523" type="curve" smooth="yes"/>
      <point x="272" y="253"/>
      <point x="610" y="87"/>
      <point x="836" y="87" type="curve" smooth="yes"/>
      <point x="862" y="87"/>
      <point x="890" y="89"/>
      <point x="917" y="92" type="curve"/>
      <point x="821" y="-73"/>
      <point x="673" y="-227"/>
      <point x="547" y="-262" type="curve" smooth="yes"/>
      <point x="525" y="-268"/>
      <point x="491" y="-271"/>
      <point x="482" y="-265" type="curve" smooth="yes"/>
      <point x="463" y="-252"/>
      <point x="449" y="-232"/>
      <point x="449" y="-204" type="curve" smooth="yes"/>
      <point x="449" y="-146"/>
      <point x="503" y="-108"/>
      <point x="665" y="-61" type="curve"/>
      <point x="530" y="133" type="line"/>
      <point x="428" y="113"/>
      <point x="341" y="76"/>
      <point x="282" y="27" type="curve" smooth="yes"/>
      <point x="275" y="21"/>
      <point x="268" y="15"/>
      <point x="262" y="8" type="curve"/>
      <point x="212" y="38"/>
      <point x="196" y="77"/>
      <point x="196" y="118" type="curve" smooth="yes"/>
      <point x="196" y="148"/>
      <point x="208" y="182"/>
      <point x="248" y="199" type="curve" smooth="yes"/>
      <point x="277" y="211"/>
      <point x="303" y="213"/>
      <point x="360" y="211" type="curve"/>
      <point x="246" y="334" type="line"/>
      <point x="212" y="348"/>
      <point x="175" y="356"/>
      <point x="130" y="356" type="curve" smooth="yes"/>
      <point x="69" y="356"/>
      <point x="-54" y="325"/>
      <point x="-54" y="186" type="curve" smooth="yes"/>
      <point x="-54" y="82"/>
      <point x="44" y="-7"/>
      <point x="226" y="-40" type="curve"/>
      <point x="212" y="-66"/>
      <point x="205" y="-96"/>
      <point x="205" y="-132" type="curve" smooth="yes"/>
      <point x="205" y="-305"/>
      <point x="455" y="-424"/>
      <point x="693" y="-377" type="curve" smooth="yes"/>
      <point x="733" y="-370"/>
      <point x="848" y="-327"/>
      <point x="958" y="-223" type="curve"/>
      <point x="1061" y="-355" type="line"/>
      <point x="1156" y="-277"/>
      <point x="1222" y="-262"/>
      <point x="1277" y="-262" type="curve" smooth="yes"/>
      <point x="1318" y="-262"/>
      <point x="1348" y="-274"/>
      <point x="1359" y="-287" type="curve"/>
      <point x="1364" y="-292"/>
      <point x="1369" y="-310"/>
      <point x="1369" y="-334" type="curve" smooth="yes"/>
      <point x="1369" y="-401"/>
      <point x="1305" y="-485"/>
      <point x="1167" y="-485" type="curve" smooth="yes"/>
      <point x="1027" y="-485"/>
      <point x="942" y="-403"/>
      <point x="876" y="-336" type="curve"/>
      <point x="786" y="-406" type="line"/>
      <point x="832" y="-480"/>
      <point x="992" y="-679"/>
      <point x="1222" y="-679" type="curve" smooth="yes"/>
      <point x="1416" y="-679"/>
      <point x="1538" y="-565"/>
      <point x="1538" y="-420" type="curve" smooth="yes"/>
      <point x="1538" y="-318"/>
      <point x="1448" y="-179"/>
      <point x="1321" y="-112" type="curve"/>
    </contour>
    <contour>
      <point x="1052" y="1187" type="move" name="top"/>
    </contour>
    <contour>
      <point x="1125" y="-108" type="move" name="bottom"/>
    </contour>
  </outline>
</glyph>
<glyph name="uni0926094D09270942" format="1">
  <advance width="1619"/>
  <outline>
    <contour>
      <point x="1562" y="-200"/>
      <point x="1427" y="-67"/>
      <point x="1248" y="-58" type="curve"/>
      <point x="1183" y="-8"/>
      <point x="1126" y="45"/>
      <point x="1078" y="128" type="curve"/>
      <point x="1101" y="137" type="line" smooth="yes"/>
      <point x="1202" y="177"/>
      <point x="1295" y="257"/>
      <point x="1338" y="314" type="curve" smooth="yes"/>
      <point x="1352" y="333"/>
      <point x="1354" y="369"/>
      <point x="1339" y="387" type="curve" smooth="yes"/>
      <point x="1254" y="484"/>
      <point x="1113" y="529"/>
      <point x="1005" y="529" type="curve" smooth="yes"/>
      <point x="921" y="529"/>
      <point x="886" y="499"/>
      <point x="886" y="418" type="curve" smooth="yes"/>
      <point x="886" y="383"/>
      <point x="898" y="342"/>
      <point x="913" y="304" type="curve"/>
      <point x="846" y="262"/>
      <point x="753" y="247"/>
      <point x="703" y="247" type="curve" smooth="yes"/>
      <point x="670" y="247"/>
      <point x="637" y="250"/>
      <point x="629" y="259" type="curve"/>
      <point x="605" y="283"/>
      <point x="581" y="364"/>
      <point x="581" y="468" type="curve" smooth="yes"/>
      <point x="581" y="567"/>
      <point x="603" y="647"/>
      <point x="807" y="647" type="curve" smooth="yes"/>
      <point x="1206" y="647" type="line"/>
      <point x="1211" y="690"/>
      <point x="1215" y="731"/>
      <point x="1216" y="776" type="curve" smooth="yes"/>
      <point x="1216" y="838"/>
      <point x="1209" y="907"/>
      <point x="1190" y="998" type="curve"/>
      <point x="1663" y="998" type="line"/>
      <point x="1620" y="1187" type="line"/>
      <point x="-54" y="1187" type="line"/>
      <point x="-4" y="998" type="line"/>
      <point x="913" y="998" type="line"/>
      <point x="915" y="976"/>
      <point x="917" y="950"/>
      <point x="917" y="924" type="curve" smooth="yes"/>
      <point x="917" y="882"/>
      <point x="912" y="869"/>
      <point x="905" y="837" type="curve"/>
      <point x="689" y="837" type="line" smooth="yes"/>
      <point x="331" y="837"/>
      <point x="272" y="668"/>
      <point x="272" y="523" type="curve" smooth="yes"/>
      <point x="272" y="253"/>
      <point x="610" y="87"/>
      <point x="836" y="87" type="curve" smooth="yes"/>
      <point x="862" y="87"/>
      <point x="890" y="89"/>
      <point x="917" y="92" type="curve"/>
      <point x="821" y="-73"/>
      <point x="673" y="-227"/>
      <point x="547" y="-262" type="curve" smooth="yes"/>
      <point x="525" y="-268"/>
      <point x="491" y="-271"/>
      <point x="482" y="-265" type="curve" smooth="yes"/>
      <point x="463" y="-252"/>
      <point x="449" y="-232"/>
      <point x="449" y="-204" type="curve" smooth="yes"/>
      <point x="449" y="-146"/>
      <point x="503" y="-108"/>
      <point x="665" y="-61" type="curve"/>
      <point x="530" y="133" type="line"/>
      <point x="428" y="113"/>
      <point x="341" y="76"/>
      <point x="282" y="27" type="curve" smooth="yes"/>
      <point x="275" y="21"/>
      <point x="268" y="15"/>
      <point x="262" y="8" type="curve"/>
      <point x="212" y="38"/>
      <point x="196" y="77"/>
      <point x="196" y="118" type="curve" smooth="yes"/>
      <point x="196" y="148"/>
      <point x="208" y="182"/>
      <point x="248" y="199" type="curve" smooth="yes"/>
      <point x="277" y="211"/>
      <point x="303" y="213"/>
      <point x="372" y="211" type="curve"/>
      <point x="246" y="334" type="line"/>
      <point x="212" y="348"/>
      <point x="175" y="356"/>
      <point x="130" y="356" type="curve" smooth="yes"/>
      <point x="69" y="356"/>
      <point x="-54" y="325"/>
      <point x="-54" y="186" type="curve" smooth="yes"/>
      <point x="-54" y="82"/>
      <point x="44" y="-7"/>
      <point x="226" y="-40" type="curve"/>
      <point x="212" y="-66"/>
      <point x="205" y="-96"/>
      <point x="205" y="-132" type="curve" smooth="yes"/>
      <point x="205" y="-305"/>
      <point x="455" y="-424"/>
      <point x="693" y="-377" type="curve" smooth="yes"/>
      <point x="728" y="-370"/>
      <point x="821" y="-337"/>
      <point x="918" y="-258" type="curve"/>
      <point x="913" y="-278"/>
      <point x="910" y="-298"/>
      <point x="910" y="-319" type="curve" smooth="yes"/>
      <point x="910" y="-507"/>
      <point x="1100" y="-650"/>
      <point x="1258" y="-650" type="curve" smooth="yes"/>
      <point x="1325" y="-650"/>
      <point x="1379" y="-639"/>
      <point x="1447" y="-590" type="curve"/>
      <point x="1366" y="-394" type="line"/>
      <point x="1297" y="-439"/>
      <point x="1246" y="-456"/>
      <point x="1192" y="-456" type="curve" smooth="yes"/>
      <point x="1147" y="-456"/>
      <point x="1111" y="-448"/>
      <point x="1102" y="-442" type="curve" smooth="yes"/>
      <point x="1093" y="-436"/>
      <point x="1088" y="-399"/>
      <point x="1088" y="-380" type="curve" smooth="yes"/>
      <point x="1088" y="-308"/>
      <point x="1156" y="-275"/>
      <point x="1256" y="-275" type="curve" smooth="yes"/>
      <point x="1390" y="-275"/>
      <point x="1530" y="-386"/>
      <point x="1678" y="-584" type="curve"/>
      <point x="1762" y="-521" type="line"/>
      <point x="1749" y="-490"/>
      <point x="1696" y="-393"/>
      <point x="1659" y="-339" type="curve" smooth="yes"/>
    </contour>
    <contour>
      <point x="1052" y="1187" type="move" name="top"/>
    </contour>
  </outline>
</glyph>
<glyph name="uni0926094D09280942" format="1">
  <advance width="1365"/>
  <outline>
    <contour>
      <point x="1346" y="-205"/>
      <point x="1252" y="-104"/>
      <point x="1133" y="-56" type="curve"/>
      <point x="1064" y="-8"/>
      <point x="1016" y="32"/>
      <point x="967" y="96" type="curve"/>
      <point x="1049" y="140"/>
      <point x="1136" y="216"/>
      <point x="1182" y="300" type="curve" smooth="yes"/>
      <point x="1194" y="322"/>
      <point x="1192" y="349"/>
      <point x="1177" y="367" type="curve" smooth="yes"/>
      <point x="1092" y="464"/>
      <point x="951" y="519"/>
      <point x="843" y="519" type="curve" smooth="yes"/>
      <point x="759" y="519"/>
      <point x="724" y="487"/>
      <point x="724" y="406" type="curve" smooth="yes"/>
      <point x="724" y="371"/>
      <point x="736" y="312"/>
      <point x="748" y="272" type="curve"/>
      <point x="690" y="234"/>
      <point x="609" y="207"/>
      <point x="541" y="207" type="curve" smooth="yes"/>
      <point x="508" y="207"/>
      <point x="475" y="210"/>
      <point x="467" y="219" type="curve"/>
      <point x="443" y="243"/>
      <point x="419" y="352"/>
      <point x="419" y="438" type="curve" smooth="yes"/>
      <point x="419" y="537"/>
      <point x="441" y="627"/>
      <point x="645" y="627" type="curve" smooth="yes"/>
      <point x="1031" y="627" type="line"/>
      <point x="1046" y="678"/>
      <point x="1054" y="721"/>
      <point x="1054" y="780" type="curve" smooth="yes"/>
      <point x="1054" y="845"/>
      <point x="1041" y="937"/>
      <point x="1028" y="998" type="curve"/>
      <point x="1373" y="998" type="line"/>
      <point x="1327" y="1187" type="line"/>
      <point x="-52" y="1187" type="line"/>
      <point x="-3" y="998" type="line"/>
      <point x="751" y="998" type="line"/>
      <point x="753" y="976"/>
      <point x="755" y="950"/>
      <point x="755" y="924" type="curve" smooth="yes"/>
      <point x="755" y="882"/>
      <point x="750" y="849"/>
      <point x="743" y="817" type="curve"/>
      <point x="527" y="817" type="line" smooth="yes"/>
      <point x="169" y="817"/>
      <point x="110" y="648"/>
      <point x="110" y="503" type="curve" smooth="yes"/>
      <point x="110" y="218"/>
      <point x="377" y="67"/>
      <point x="595" y="37" type="curve"/>
      <point x="493" y="-14" type="line" smooth="yes"/>
      <point x="330" y="-95"/>
      <point x="260" y="-151"/>
      <point x="257" y="-196" type="curve"/>
      <point x="256" y="-203"/>
      <point x="258" y="-210"/>
      <point x="261" y="-217" type="curve" smooth="yes"/>
      <point x="292" y="-283"/>
      <point x="423" y="-341"/>
      <point x="524" y="-346" type="curve"/>
      <point x="555" y="-349"/>
      <point x="585" y="-333"/>
      <point x="592" y="-307" type="curve"/>
      <point x="601" y="-265"/>
      <point x="586" y="-199"/>
      <point x="561" y="-150" type="curve"/>
      <point x="840" y="7" type="line"/>
      <point x="848" y="-11"/>
      <point x="856" y="-29"/>
      <point x="865" y="-46" type="curve"/>
      <point x="738" y="-86"/>
      <point x="670" y="-186"/>
      <point x="670" y="-289" type="curve" smooth="yes"/>
      <point x="670" y="-477"/>
      <point x="860" y="-620"/>
      <point x="1018" y="-620" type="curve" smooth="yes"/>
      <point x="1085" y="-620"/>
      <point x="1139" y="-609"/>
      <point x="1207" y="-560" type="curve"/>
      <point x="1126" y="-364" type="line"/>
      <point x="1057" y="-409"/>
      <point x="1006" y="-426"/>
      <point x="952" y="-426" type="curve" smooth="yes"/>
      <point x="907" y="-426"/>
      <point x="871" y="-418"/>
      <point x="862" y="-412" type="curve" smooth="yes"/>
      <point x="853" y="-406"/>
      <point x="848" y="-369"/>
      <point x="848" y="-350" type="curve" smooth="yes"/>
      <point x="848" y="-278"/>
      <point x="916" y="-245"/>
      <point x="1016" y="-245" type="curve" smooth="yes"/>
      <point x="1150" y="-245"/>
      <point x="1290" y="-356"/>
      <point x="1438" y="-554" type="curve"/>
      <point x="1522" y="-491" type="line"/>
      <point x="1509" y="-460"/>
      <point x="1456" y="-363"/>
      <point x="1419" y="-309" type="curve" smooth="yes"/>
    </contour>
    <contour>
      <point x="876" y="1187" type="move" name="top"/>
    </contour>
  </outline>
</glyph>
<glyph name="uni0926094D09300941" format="1">
  <advance width="1269"/>
  <outline>
    <contour>
      <point x="1065" y="-9"/>
      <point x="1016" y="31"/>
      <point x="967" y="96" type="curve"/>
      <point x="1049" y="140"/>
      <point x="1136" y="216"/>
      <point x="1182" y="300" type="curve" smooth="yes"/>
      <point x="1194" y="322"/>
      <point x="1192" y="349"/>
      <point x="1177" y="367" type="curve" smooth="yes"/>
      <point x="1092" y="464"/>
      <point x="951" y="519"/>
      <point x="843" y="519" type="curve" smooth="yes"/>
      <point x="759" y="519"/>
      <point x="724" y="487"/>
      <point x="724" y="406" type="curve" smooth="yes"/>
      <point x="724" y="371"/>
      <point x="736" y="312"/>
      <point x="748" y="272" type="curve"/>
      <point x="690" y="234"/>
      <point x="609" y="207"/>
      <point x="541" y="207" type="curve" smooth="yes"/>
      <point x="508" y="207"/>
      <point x="475" y="210"/>
      <point x="467" y="219" type="curve"/>
      <point x="443" y="243"/>
      <point x="419" y="352"/>
      <point x="419" y="438" type="curve" smooth="yes"/>
      <point x="419" y="537"/>
      <point x="441" y="627"/>
      <point x="645" y="627" type="curve" smooth="yes"/>
      <point x="1031" y="627" type="line"/>
      <point x="1046" y="678"/>
      <point x="1054" y="721"/>
      <point x="1054" y="780" type="curve" smooth="yes"/>
      <point x="1054" y="845"/>
      <point x="1041" y="937"/>
      <point x="1028" y="998" type="curve"/>
      <point x="1313" y="998" type="line"/>
      <point x="1267" y="1187" type="line"/>
      <point x="-52" y="1187" type="line"/>
      <point x="-3" y="998" type="line"/>
      <point x="751" y="998" type="line"/>
      <point x="753" y="976"/>
      <point x="755" y="950"/>
      <point x="755" y="924" type="curve" smooth="yes"/>
      <point x="755" y="882"/>
      <point x="750" y="849"/>
      <point x="743" y="817" type="curve"/>
      <point x="527" y="817" type="line" smooth="yes"/>
      <point x="169" y="817"/>
      <point x="110" y="648"/>
      <point x="110" y="503" type="curve" smooth="yes"/>
      <point x="110" y="214"/>
      <point x="384" y="63"/>
      <point x="604" y="36" type="curve"/>
      <point x="294" y="-183" type="line"/>
      <point x="504" y="-370" type="line"/>
      <point x="843" y="21" type="line"/>
      <point x="855" y="-3"/>
      <point x="868" y="-27"/>
      <point x="882" y="-49" type="curve"/>
      <point x="843" y="-64"/>
      <point x="803" y="-89"/>
      <point x="756" y="-131" type="curve"/>
      <point x="894" y="-312" type="line"/>
      <point x="987" y="-233"/>
      <point x="1063" y="-217"/>
      <point x="1110" y="-217" type="curve" smooth="yes"/>
      <point x="1151" y="-217"/>
      <point x="1181" y="-229"/>
      <point x="1192" y="-242" type="curve"/>
      <point x="1197" y="-247"/>
      <point x="1202" y="-265"/>
      <point x="1202" y="-289" type="curve" smooth="yes"/>
      <point x="1202" y="-356"/>
      <point x="1138" y="-440"/>
      <point x="1000" y="-440" type="curve" smooth="yes"/>
      <point x="864" y="-440"/>
      <point x="772" y="-355"/>
      <point x="701" y="-281" type="curve"/>
      <point x="614" y="-360" type="line"/>
      <point x="662" y="-430"/>
      <point x="831" y="-634"/>
      <point x="1055" y="-634" type="curve" smooth="yes"/>
      <point x="1249" y="-634"/>
      <point x="1371" y="-520"/>
      <point x="1371" y="-375" type="curve" smooth="yes"/>
      <point x="1371" y="-269"/>
      <point x="1273" y="-122"/>
      <point x="1137" y="-59" type="curve"/>
    </contour>
    <contour>
      <point x="201" y="-100" type="move" name="nukta"/>
    </contour>
    <contour>
      <point x="868" y="-70" type="move" name="bottom"/>
    </contour>
    <contour>
      <point x="890" y="1187" type="move" name="top"/>
    </contour>
  </outline>
</glyph>
<glyph name="uni092A094D" format="1">
  <advance width="629"/>
  <note>
    dP.half
  </note>
  <outline>
    <contour>
      <point x="692" y="263"/>
      <point x="786" y="280"/>
      <point x="926" y="376" type="curve"/>
      <point x="807" y="620" type="line"/>
      <point x="721" y="521"/>
      <point x="626" y="438"/>
      <point x="508" y="425" type="curve" smooth="yes"/>
      <point x="483" y="422"/>
      <point x="459" y="424"/>
      <point x="453" y="430" type="curve" smooth="yes"/>
      <point x="436" y="447"/>
      <point x="423" y="519"/>
      <point x="423" y="623" type="curve" smooth="yes"/>
      <point x="423" y="998" type="line"/>
      <point x="675" y="998" type="line"/>
      <point x="631" y="1187" type="line"/>
      <point x="-48" y="1187" type="line"/>
      <point x="-1" y="998" type="line"/>
      <point x="126" y="998" type="line"/>
      <point x="126" y="630" type="line" smooth="yes"/>
      <point x="126" y="388"/>
      <point x="399" y="263"/>
      <point x="574" y="263" type="curve" smooth="yes"/>
    </contour>
  </outline>
</glyph>
<glyph name="uni092A094D091D" format="1">
  <advance width="2244"/>
  <outline>
    <contour>
      <point x="692" y="343"/>
      <point x="786" y="360"/>
      <point x="926" y="456" type="curve"/>
      <point x="807" y="700" type="line"/>
      <point x="721" y="601"/>
      <point x="626" y="518"/>
      <point x="508" y="505" type="curve" smooth="yes"/>
      <point x="483" y="502"/>
      <point x="459" y="504"/>
      <point x="453" y="510" type="curve" smooth="yes"/>
      <point x="436" y="527"/>
      <point x="423" y="599"/>
      <point x="423" y="703" type="curve" smooth="yes"/>
      <point x="423" y="998" type="line"/>
      <point x="675" y="998" type="line"/>
      <point x="631" y="1187" type="line"/>
      <point x="-48" y="1187" type="line"/>
      <point x="-1" y="998" type="line"/>
      <point x="126" y="998" type="line"/>
      <point x="126" y="710" type="line" smooth="yes"/>
      <point x="126" y="468"/>
      <point x="399" y="343"/>
      <point x="574" y="343" type="curve" smooth="yes"/>
    </contour>
    <component base="jhadeva" xOffset="619"/>
  </outline>
</glyph>
<glyph name="uni092A094D091F" format="1">
  <advance width="1113"/>
  <note>
    dPTta
  </note>
  <outline>
    <contour>
      <point x="980" y="283" type="line"/>
      <point x="819" y="110"/>
      <point x="677" y="50"/>
      <point x="556" y="50" type="curve" smooth="yes"/>
      <point x="492" y="50"/>
      <point x="431" y="65"/>
      <point x="423" y="76" type="curve" smooth="yes"/>
      <point x="403" y="105"/>
      <point x="389" y="155"/>
      <point x="389" y="209" type="curve" smooth="yes"/>
      <point x="389" y="319"/>
      <point x="460" y="366"/>
      <point x="645" y="366" type="curve" smooth="yes"/>
      <point x="980" y="366" type="line"/>
      <point x="990" y="646"/>
      <point x="986" y="797"/>
      <point x="975" y="998" type="curve"/>
      <point x="1147" y="998" type="line"/>
      <point x="1101" y="1187" type="line"/>
      <point x="-52" y="1187" type="line"/>
      <point x="-2" y="998" type="line"/>
      <point x="86" y="998" type="line"/>
      <point x="86" y="750" type="line" smooth="yes"/>
      <point x="86" y="636"/>
      <point x="147" y="552"/>
      <point x="230" y="495" type="curve"/>
      <point x="133" y="447"/>
      <point x="100" y="370"/>
      <point x="100" y="286" type="curve" smooth="yes"/>
      <point x="100" y="64"/>
      <point x="362" y="-132"/>
      <point x="689" y="-132" type="curve" smooth="yes"/>
      <point x="885" y="-132"/>
      <point x="1024" y="-83"/>
      <point x="1165" y="59" type="curve"/>
    </contour>
    <contour>
      <point x="401" y="585"/>
      <point x="383" y="639"/>
      <point x="383" y="743" type="curve" smooth="yes"/>
      <point x="383" y="998" type="line"/>
      <point x="704" y="998" type="line"/>
      <point x="707" y="902"/>
      <point x="709" y="646"/>
      <point x="700" y="546" type="curve"/>
      <point x="510" y="546" type="line"/>
      <point x="498" y="546" type="line"/>
      <point x="498" y="546"/>
      <point x="498" y="546"/>
      <point x="497" y="546" type="curve"/>
      <point x="488" y="546" type="line"/>
      <point x="460" y="547"/>
      <point x="416" y="563"/>
      <point x="412" y="568" type="curve" smooth="yes"/>
    </contour>
    <contour>
      <point x="839" y="1187" type="move" name="top"/>
    </contour>
    <contour>
      <point x="694" y="-120" type="move" name="bottom"/>
    </contour>
  </outline>
</glyph>
<glyph name="uni092E094D0928094D" format="1">
  <advance width="818"/>
  <note>
    dMN.half
  </note>
  <outline>
    <contour>
      <point x="1037" y="369" type="line"/>
      <point x="971" y="492" type="line"/>
      <point x="904" y="427"/>
      <point x="726" y="260"/>
      <point x="658" y="195" type="curve" smooth="yes"/>
      <point x="522" y="67"/>
      <point x="456" y="2"/>
      <point x="466" y="-56" type="curve"/>
      <point x="468" y="-65"/>
      <point x="472" y="-73"/>
      <point x="476" y="-77" type="curve"/>
      <point x="523" y="-133"/>
      <point x="686" y="-137"/>
      <point x="782" y="-114" type="curve" smooth="yes"/>
      <point x="815" y="-107"/>
      <point x="839" y="-83"/>
      <point x="838" y="-56" type="curve" smooth="yes"/>
      <point x="836" y="-14"/>
      <point x="802" y="44"/>
      <point x="764" y="86" type="curve"/>
    </contour>
    <component base="uni092E094D"/>
  </outline>
</glyph>
<glyph name="uni0930094D" format="1">
  <advance width="600"/>
  <outline>
    <contour>
      <point x="353" y="1304" type="line"/>
      <point x="322" y="1347"/>
      <point x="297" y="1400"/>
      <point x="297" y="1464" type="curve" smooth="yes"/>
      <point x="298" y="1530"/>
      <point x="352" y="1599"/>
      <point x="442" y="1599" type="curve" smooth="yes"/>
      <point x="511" y="1599"/>
      <point x="563" y="1586"/>
      <point x="650" y="1531" type="curve"/>
      <point x="589" y="1706" type="line"/>
      <point x="524" y="1747"/>
      <point x="441" y="1777"/>
      <point x="336" y="1777" type="curve" smooth="yes"/>
      <point x="203" y="1777"/>
      <point x="65" y="1709"/>
      <point x="65" y="1543" type="curve" smooth="yes"/>
      <point x="65" y="1444"/>
      <point x="163" y="1308"/>
      <point x="242" y="1242" type="curve"/>
    </contour>
    <contour>
      <point x="353" y="1304" type="move" name="_imatra"/>
    </contour>
    <contour>
      <point x="300" y="1187" type="move" name="_top"/>
    </contour>
  </outline>
</glyph>
<glyph name="uni0935094D0928094D" format="1">
  <advance width="702"/>
  <note>
    dVN.half
  </note>
  <outline>
    <contour>
      <point x="847" y="222" type="line"/>
      <point x="805" y="362" type="line"/>
      <point x="732" y="311"/>
      <point x="607" y="225"/>
      <point x="527" y="167" type="curve" smooth="yes"/>
      <point x="356" y="43"/>
      <point x="292" y="-16"/>
      <point x="292" y="-67" type="curve" smooth="yes"/>
      <point x="292" y="-85"/>
      <point x="299" y="-93"/>
      <point x="302" y="-97" type="curve" smooth="yes"/>
      <point x="344" y="-157"/>
      <point x="506" y="-177"/>
      <point x="603" y="-163" type="curve"/>
      <point x="637" y="-161"/>
      <point x="663" y="-140"/>
      <point x="665" y="-113" type="curve"/>
      <point x="666" y="-71"/>
      <point x="639" y="-10"/>
      <point x="605" y="37" type="curve"/>
    </contour>
    <component base="uni0935094D"/>
  </outline>
</glyph>
<glyph name="uni0935094D0930094D" format="1">
  <advance width="702"/>
  <note>
    dVR.half
  </note>
  <outline>
    <contour>
      <point x="830" y="369" type="line"/>
      <point x="173" y="19" type="line"/>
      <point x="360" y="-192" type="line"/>
      <point x="918" y="259" type="line"/>
    </contour>
    <component base="uni0935094D"/>
  </outline>
</glyph>
<glyph name="uni0936094D.ss02" format="1">
  <advance width="908"/>
  <note>
    dSh.half_alt
  </note>
  <outline>
    <contour>
      <point x="1098" y="662" type="line"/>
      <point x="1007" y="626"/>
      <point x="919" y="584"/>
      <point x="792" y="584" type="curve" smooth="yes"/>
      <point x="748" y="584"/>
      <point x="704" y="590"/>
      <point x="661" y="600" type="curve"/>
      <point x="751" y="676"/>
      <point x="811" y="761"/>
      <point x="810" y="861" type="curve" smooth="yes"/>
      <point x="809" y="991"/>
      <point x="682" y="1207"/>
      <point x="403" y="1207" type="curve" smooth="yes"/>
      <point x="264" y="1207"/>
      <point x="91" y="1159"/>
      <point x="89" y="935" type="curve" smooth="yes"/>
      <point x="88" y="808"/>
      <point x="153" y="704"/>
      <point x="250" y="622" type="curve"/>
      <point x="132" y="568"/>
      <point x="36" y="540"/>
      <point x="-34" y="518" type="curve"/>
      <point x="52" y="294" type="line"/>
      <point x="151" y="320"/>
      <point x="308" y="368"/>
      <point x="494" y="482" type="curve"/>
      <point x="650" y="419"/>
      <point x="821" y="388"/>
      <point x="943" y="386" type="curve" smooth="yes"/>
      <point x="1013" y="385"/>
      <point x="1060" y="393"/>
      <point x="1145" y="416" type="curve"/>
    </contour>
    <contour>
      <point x="949" y="998" type="line"/>
      <point x="909" y="1187" type="line"/>
      <point x="846" y="1187" type="line"/>
      <point x="893" y="998" type="line"/>
    </contour>
    <contour>
      <point x="519" y="1049"/>
      <point x="558" y="1043"/>
      <point x="570" y="1029" type="curve" smooth="yes"/>
      <point x="578" y="1020"/>
      <point x="591" y="974"/>
      <point x="591" y="937" type="curve" smooth="yes"/>
      <point x="591" y="846"/>
      <point x="536" y="785"/>
      <point x="443" y="726" type="curve"/>
      <point x="397" y="779"/>
      <point x="368" y="846"/>
      <point x="368" y="924" type="curve" smooth="yes"/>
      <point x="368" y="992"/>
      <point x="414" y="1048"/>
      <point x="491" y="1049" type="curve" smooth="yes"/>
    </contour>
  </outline>
</glyph>
<glyph name="uni0938094D0930" format="1">
  <advance width="1451"/>
  <note>
    dSRa
  </note>
  <outline>
    <contour>
      <point x="916" y="998" type="line"/>
      <point x="870" y="1187" type="line"/>
      <point x="-71" y="1187" type="line"/>
      <point x="-20" y="998" type="line"/>
    </contour>
    <contour>
      <point x="376" y="1031" type="line"/>
      <point x="394" y="975"/>
      <point x="408" y="920"/>
      <point x="408" y="871" type="curve" smooth="yes"/>
      <point x="408" y="796"/>
      <point x="387" y="748"/>
      <point x="330" y="690" type="curve"/>
      <point x="236" y="745" type="line"/>
      <point x="69" y="639" type="line"/>
      <point x="181" y="274"/>
      <point x="321" y="46"/>
      <point x="574" y="-147" type="curve"/>
      <point x="709" y="81" type="line"/>
      <point x="533" y="166"/>
      <point x="443" y="225"/>
      <point x="353" y="331" type="curve"/>
      <point x="603" y="448"/>
      <point x="672" y="616"/>
      <point x="672" y="745" type="curve" smooth="yes"/>
      <point x="672" y="826"/>
      <point x="641" y="925"/>
      <point x="595" y="1031" type="curve"/>
    </contour>
    <contour>
      <point x="452" y="482" type="line"/>
      <point x="552" y="416"/>
      <point x="693" y="344"/>
      <point x="816" y="344" type="curve" smooth="yes"/>
      <point x="899" y="344"/>
      <point x="1000" y="353"/>
      <point x="1113" y="418" type="curve"/>
      <point x="1032" y="676" type="line"/>
      <point x="954" y="622"/>
      <point x="850" y="552"/>
      <point x="725" y="552" type="curve" smooth="yes"/>
      <point x="655" y="552"/>
      <point x="570" y="579"/>
      <point x="500" y="610" type="curve"/>
    </contour>
    <contour>
      <point x="689" y="168" type="line"/>
      <point x="871" y="38" type="line"/>
      <point x="1121" y="422" type="line" smooth="yes"/>
      <point x="1126" y="430"/>
      <point x="1126" y="436"/>
      <point x="1124" y="442" type="curve"/>
      <point x="1120" y="450"/>
      <point x="1113" y="490"/>
      <point x="1092" y="505" type="curve" smooth="yes"/>
      <point x="1084" y="511"/>
      <point x="1077" y="517"/>
      <point x="1068" y="515" type="curve"/>
      <point x="1060" y="515"/>
      <point x="1052" y="510"/>
      <point x="1044" y="500" type="curve"/>
    </contour>
    <component base="uni093E" xOffset="841"/>
    <contour>
      <point x="123" y="-80" type="move" name="nukta"/>
    </contour>
  </outline>
</glyph>
<glyph name="uni0939094D0932" format="1">
  <advance width="1238"/>
  <note>
    dHLa
  </note>
  <outline>
    <contour>
      <point x="515" y="573"/>
      <point x="454" y="565"/>
      <point x="393" y="548" type="curve"/>
      <point x="393" y="559"/>
      <point x="394" y="570"/>
      <point x="395" y="583" type="curve" smooth="yes"/>
      <point x="405" y="649"/>
      <point x="453" y="672"/>
      <point x="545" y="672" type="curve" smooth="yes"/>
      <point x="923" y="672" type="line"/>
      <point x="930" y="715"/>
      <point x="931" y="757"/>
      <point x="931" y="799" type="curve" smooth="yes"/>
      <point x="931" y="864"/>
      <point x="920" y="929"/>
      <point x="904" y="998" type="curve"/>
      <point x="1290" y="998" type="line"/>
      <point x="1243" y="1187" type="line"/>
      <point x="-53" y="1187" type="line"/>
      <point x="-4" y="998" type="line"/>
      <point x="635" y="998" type="line"/>
      <point x="639" y="971"/>
      <point x="641" y="945"/>
      <point x="641" y="919" type="curve" smooth="yes"/>
      <point x="641" y="900"/>
      <point x="640" y="881"/>
      <point x="638" y="862" type="curve"/>
      <point x="396" y="862" type="line" smooth="yes"/>
      <point x="251" y="862"/>
      <point x="125" y="826"/>
      <point x="125" y="693" type="curve" smooth="yes"/>
      <point x="125" y="624"/>
      <point x="182" y="556"/>
      <point x="256" y="493" type="curve"/>
      <point x="138" y="428"/>
      <point x="49" y="323"/>
      <point x="49" y="174" type="curve" smooth="yes"/>
      <point x="49" y="-124"/>
      <point x="334" y="-344"/>
      <point x="754" y="-461" type="curve"/>
      <point x="791" y="-341" type="line"/>
      <point x="439" y="-206"/>
      <point x="346" y="-19"/>
      <point x="346" y="142" type="curve" smooth="yes"/>
      <point x="346" y="330"/>
      <point x="528" y="408"/>
      <point x="689" y="408" type="curve" smooth="yes"/>
      <point x="762" y="408"/>
      <point x="866" y="387"/>
      <point x="929" y="351" type="curve" smooth="yes"/>
      <point x="943" y="343"/>
      <point x="958" y="334"/>
      <point x="967" y="322" type="curve" smooth="yes"/>
      <point x="969" y="319"/>
      <point x="972" y="304"/>
      <point x="975" y="282" type="curve"/>
      <point x="940" y="294"/>
      <point x="900" y="303"/>
      <point x="871" y="303" type="curve" smooth="yes"/>
      <point x="825" y="303"/>
      <point x="787" y="288"/>
      <point x="758" y="261" type="curve"/>
      <point x="706" y="296"/>
      <point x="661" y="316"/>
      <point x="610" y="316" type="curve" smooth="yes"/>
      <point x="508" y="316"/>
      <point x="423" y="241"/>
      <point x="423" y="132" type="curve" smooth="yes"/>
      <point x="423" y="-30"/>
      <point x="571" y="-149"/>
      <point x="745" y="-238" type="curve"/>
      <point x="797" y="-152" type="line"/>
      <point x="646" y="-53"/>
      <point x="612" y="21"/>
      <point x="612" y="97" type="curve" smooth="yes"/>
      <point x="612" y="149"/>
      <point x="643" y="190"/>
      <point x="683" y="199" type="curve" smooth="yes"/>
      <point x="696" y="202"/>
      <point x="708" y="202"/>
      <point x="718" y="201" type="curve"/>
      <point x="702" y="163"/>
      <point x="693" y="115"/>
      <point x="692" y="59" type="curve"/>
      <point x="872" y="14" type="line"/>
      <point x="882" y="161"/>
      <point x="921" y="201"/>
      <point x="978" y="204" type="curve"/>
      <point x="978" y="179"/>
      <point x="976" y="153"/>
      <point x="973" y="126" type="curve" smooth="yes"/>
      <point x="961" y="31"/>
      <point x="929" y="-36"/>
      <point x="864" y="-175" type="curve"/>
      <point x="1116" y="-245" type="line"/>
      <point x="1175" y="-119"/>
      <point x="1192" y="11"/>
      <point x="1172" y="157" type="curve" smooth="yes"/>
      <point x="1147" y="341"/>
      <point x="945" y="573"/>
      <point x="573" y="573" type="curve" smooth="yes"/>
    </contour>
    <contour>
      <point x="770" y="1187" type="move" name="top"/>
    </contour>
    <contour>
      <point x="737" y="-350" type="move" name="bottom"/>
    </contour>
  </outline>
</glyph>
<glyph name="uni0940.02" format="1">
  <advance width="592"/>
  <note>
    dMatraIi.2
  </note>
  <outline>
    <contour>
      <point x="145" y="998" type="line"/>
      <point x="145" y="-42" type="line"/>
      <point x="447" y="-98" type="line"/>
      <point x="447" y="998" type="line"/>
      <point x="638" y="998" type="line"/>
      <point x="592" y="1187" type="line"/>
      <point x="419" y="1187" type="line"/>
      <point x="34" y="1577"/>
      <point x="-432" y="1737"/>
      <point x="-695" y="1737" type="curve" smooth="yes"/>
      <point x="-897" y="1737"/>
      <point x="-1037" y="1640"/>
      <point x="-1037" y="1474" type="curve" smooth="yes"/>
      <point x="-1037" y="1358"/>
      <point x="-964" y="1281"/>
      <point x="-877" y="1226" type="curve"/>
      <point x="-742" y="1280" type="line"/>
      <point x="-751" y="1301"/>
      <point x="-777" y="1350"/>
      <point x="-777" y="1406" type="curve" smooth="yes"/>
      <point x="-777" y="1530"/>
      <point x="-674" y="1578"/>
      <point x="-576" y="1578" type="curve" smooth="yes"/>
      <point x="-412" y="1578"/>
      <point x="-175" y="1470"/>
      <point x="121" y="1187" type="curve"/>
      <point x="-50" y="1187" type="line"/>
      <point x="-1" y="998" type="line"/>
    </contour>
    <contour>
      <point x="-798" y="1187" type="move" name="iimatra"/>
    </contour>
    <contour>
      <point x="295" y="1137" type="move" name="top"/>
    </contour>
  </outline>
</glyph>
